EurostileRegular.ufo
<glyph name="quotedbl" format="1">
  <advance width="639"/>
  <unicode hex="0022"/>
  <outline>
    <contour>
      <point x="211" y="819" type="line"/>
      <point x="112" y="819" type="line"/>
      <point x="93" y="1365" type="line"/>
      <point x="231" y="1365" type="line"/>
    </contour>
    <contour>
      <point x="527" y="819" type="line"/>
      <point x="428" y="819" type="line"/>
      <point x="408" y="1365" type="line"/>
      <point x="546" y="1365" type="line"/>
    </contour>
  </outline>
</glyph>
<glyph name="dollar" format="1">
  <advance width="1257"/>
  <unicode hex="0024"/>
  <outline>
    <contour>
      <point x="688" y="1233" type="line"/>
      <point x="688" y="759" type="line"/>
      <point x="992" y="759"/>
      <point x="1201" y="607"/>
      <point x="1201" y="385" type="qcurve" smooth="yes"/>
      <point x="1201" y="164"/>
      <point x="1002" y="1"/>
      <point x="732" y="1" type="qcurve"/>
      <point x="688" y="0" type="line"/>
      <point x="688" y="-154" type="line"/>
      <point x="572" y="-154" type="line"/>
      <point x="572" y="0" type="line"/>
      <point x="473" y="0" type="line" smooth="yes"/>
      <point x="397" y="0"/>
      <point x="347" y="4" type="qcurve" smooth="yes"/>
      <point x="55" y="27"/>
      <point x="55" y="425" type="qcurve"/>
      <point x="206" y="425" type="line"/>
      <point x="206" y="400" type="line" smooth="yes"/>
      <point x="206" y="217"/>
      <point x="311" y="126"/>
      <point x="524" y="126" type="qcurve"/>
      <point x="572" y="124" type="line"/>
      <point x="572" y="629" type="line"/>
      <point x="263" y="629"/>
      <point x="69" y="771"/>
      <point x="69" y="998" type="qcurve" smooth="yes"/>
      <point x="69" y="1217"/>
      <point x="272" y="1365"/>
      <point x="572" y="1365" type="qcurve"/>
      <point x="572" y="1492" type="line"/>
      <point x="688" y="1492" type="line"/>
      <point x="688" y="1365" type="line"/>
      <point x="745" y="1364" type="line"/>
      <point x="996" y="1364"/>
      <point x="1170" y="1225"/>
      <point x="1170" y="1026" type="qcurve"/>
      <point x="1169" y="983" type="line"/>
      <point x="1021" y="983" type="line"/>
      <point x="1020" y="1017" type="line"/>
      <point x="1020" y="1157"/>
      <point x="923" y="1233"/>
      <point x="745" y="1233" type="qcurve" smooth="yes"/>
    </contour>
    <contour>
      <point x="572" y="1235" type="line"/>
      <point x="525" y="1235" type="line" smooth="yes"/>
      <point x="332" y="1235"/>
      <point x="216" y="1152"/>
      <point x="216" y="1016" type="qcurve" smooth="yes"/>
      <point x="216" y="855"/>
      <point x="335" y="760"/>
      <point x="536" y="760" type="qcurve"/>
      <point x="572" y="759" type="line"/>
    </contour>
    <contour>
      <point x="688" y="124" type="line"/>
      <point x="725" y="118"/>
      <point x="743" y="116" type="qcurve" smooth="yes"/>
      <point x="1054" y="91"/>
      <point x="1054" y="385" type="qcurve" smooth="yes"/>
      <point x="1054" y="535"/>
      <point x="929" y="626"/>
      <point x="725" y="626" type="qcurve"/>
      <point x="688" y="627" type="line"/>
    </contour>
  </outline>
</glyph>
<glyph name="ampersand" format="1">
  <advance width="1434"/>
  <unicode hex="0026"/>
  <outline>
    <contour>
      <point x="1054" y="603" type="line"/>
      <point x="1206" y="603" type="line"/>
      <point x="1207" y="567" type="line"/>
      <point x="1208" y="498" type="line" smooth="yes"/>
      <point x="1208" y="389"/>
      <point x="1192" y="304" type="qcurve"/>
      <point x="1431" y="107" type="line"/>
      <point x="1347" y="0" type="line"/>
      <point x="1145" y="167" type="line"/>
      <point x="1060" y="-14"/>
      <point x="687" y="-14" type="qcurve" smooth="yes"/>
      <point x="327" y="-14"/>
      <point x="117" y="146"/>
      <point x="117" y="421" type="qcurve" smooth="yes"/>
      <point x="117" y="602"/>
      <point x="214" y="746"/>
      <point x="355" y="775" type="qcurve" smooth="yes"/>
      <point x="368" y="778"/>
      <point x="396" y="784" type="qcurve"/>
      <point x="272" y="888"/>
      <point x="272" y="1023" type="qcurve" smooth="yes"/>
      <point x="272" y="1214"/>
      <point x="443" y="1353"/>
      <point x="678" y="1353" type="qcurve" smooth="yes"/>
      <point x="908" y="1353"/>
      <point x="1076" y="1217"/>
      <point x="1076" y="1031" type="qcurve"/>
      <point x="1074" y="946" type="line"/>
      <point x="923" y="946" type="line"/>
      <point x="923" y="997" type="line" smooth="yes"/>
      <point x="923" y="1149"/>
      <point x="841" y="1223"/>
      <point x="672" y="1223" type="qcurve" smooth="yes"/>
      <point x="519" y="1223"/>
      <point x="419" y="1157"/>
      <point x="419" y="1056" type="qcurve" smooth="yes"/>
      <point x="419" y="942"/>
      <point x="506" y="874" type="qcurve" smooth="yes"/>
      <point x="540" y="846" type="line"/>
      <point x="1054" y="418" type="line"/>
      <point x="1054" y="446" type="line"/>
      <point x="1054" y="502" type="line"/>
      <point x="1054" y="572" type="line"/>
    </contour>
    <contour>
      <point x="492" y="701" type="line"/>
      <point x="337" y="667"/>
      <point x="264" y="576"/>
      <point x="264" y="417" type="qcurve" smooth="yes"/>
      <point x="264" y="209"/>
      <point x="385" y="116"/>
      <point x="658" y="116" type="qcurve" smooth="yes"/>
      <point x="985" y="116"/>
      <point x="1025" y="262" type="qcurve"/>
    </contour>
  </outline>
</glyph>
<glyph name="plus" format="1">
  <advance width="1256"/>
  <unicode hex="002B"/>
  <outline>
    <contour>
      <point x="558" y="210" type="line"/>
      <point x="558" y="617" type="line"/>
      <point x="155" y="617" type="line"/>
      <point x="155" y="747" type="line"/>
      <point x="558" y="747" type="line"/>
      <point x="558" y="1156" type="line"/>
      <point x="698" y="1156" type="line"/>
      <point x="698" y="747" type="line"/>
      <point x="1101" y="747" type="line"/>
      <point x="1101" y="617" type="line"/>
      <point x="698" y="617" type="line"/>
      <point x="698" y="210" type="line"/>
    </contour>
  </outline>
</glyph>
<glyph name="period" format="1">
  <advance width="400"/>
  <unicode hex="002E"/>
  <outline>
    <contour>
      <point x="277" y="184" type="line"/>
      <point x="277" y="0" type="line"/>
      <point x="123" y="0" type="line"/>
      <point x="123" y="184" type="line"/>
    </contour>
  </outline>
</glyph>
<glyph name="zero" format="1">
  <advance width="1256"/>
  <unicode hex="0030"/>
  <outline>
    <contour>
      <point x="628" y="1379" type="qcurve" smooth="yes"/>
      <point x="1007" y="1379"/>
      <point x="1163" y="1176"/>
      <point x="1163" y="683" type="qcurve" smooth="yes"/>
      <point x="1163" y="213"/>
      <point x="1089" y="113" type="qcurve" smooth="yes"/>
      <point x="994" y="-14"/>
      <point x="628" y="-14" type="qcurve" smooth="yes"/>
      <point x="262" y="-14"/>
      <point x="167" y="113" type="qcurve" smooth="yes"/>
      <point x="93" y="213"/>
      <point x="93" y="732" type="qcurve" smooth="yes"/>
      <point x="93" y="1181"/>
      <point x="257" y="1379"/>
    </contour>
    <contour>
      <point x="628" y="1249" type="qcurve" smooth="yes"/>
      <point x="341" y="1249"/>
      <point x="240" y="1101"/>
      <point x="240" y="683" type="qcurve" smooth="yes"/>
      <point x="240" y="264"/>
      <point x="341" y="116"/>
      <point x="628" y="116" type="qcurve" smooth="yes"/>
      <point x="915" y="116"/>
      <point x="1016" y="264"/>
      <point x="1016" y="683" type="qcurve" smooth="yes"/>
      <point x="1016" y="1101"/>
      <point x="915" y="1249"/>
    </contour>
  </outline>
</glyph>
<glyph name="seven" format="1">
  <advance width="1256"/>
  <unicode hex="0037"/>
  <outline>
    <contour>
      <point x="1093" y="1365" type="line"/>
      <point x="1093" y="1169" type="line"/>
      <point x="432" y="0" type="line"/>
      <point x="249" y="0" type="line"/>
      <point x="965" y="1235" type="line"/>
      <point x="98" y="1235" type="line"/>
      <point x="98" y="1365" type="line"/>
    </contour>
  </outline>
</glyph>
<glyph name="colon" format="1">
  <advance width="400"/>
  <unicode hex="003A"/>
  <outline>
    <contour>
      <point x="277" y="184" type="line"/>
      <point x="277" y="0" type="line"/>
      <point x="123" y="0" type="line"/>
      <point x="123" y="184" type="line"/>
    </contour>
    <contour>
      <point x="277" y="956" type="line"/>
      <point x="277" y="772" type="line"/>
      <point x="123" y="772" type="line"/>
      <point x="123" y="956" type="line"/>
    </contour>
  </outline>
</glyph>
<glyph name="semicolon" format="1">
  <advance width="365"/>
  <unicode hex="003B"/>
  <outline>
    <contour>
      <point x="242" y="184" type="line"/>
      <point x="242" y="-14" type="line" smooth="yes"/>
      <point x="242" y="-201"/>
      <point x="106" y="-201" type="qcurve" smooth="yes"/>
      <point x="93" y="-201"/>
      <point x="68" y="-199" type="qcurve"/>
      <point x="68" y="-123" type="line"/>
      <point x="154" y="-118"/>
      <point x="154" y="-35" type="qcurve" smooth="yes"/>
      <point x="153" y="0" type="line"/>
      <point x="88" y="0" type="line"/>
      <point x="88" y="184" type="line"/>
    </contour>
    <contour>
      <point x="232" y="956" type="line"/>
      <point x="232" y="772" type="line"/>
      <point x="78" y="772" type="line"/>
      <point x="78" y="956" type="line"/>
    </contour>
  </outline>
</glyph>
<glyph name="question" format="1">
  <advance width="1064"/>
  <unicode hex="003F"/>
  <outline>
    <contour>
      <point x="541" y="184" type="line"/>
      <point x="541" y="0" type="line"/>
      <point x="387" y="0" type="line"/>
      <point x="387" y="184" type="line"/>
    </contour>
    <contour>
      <point x="546" y="394" type="line"/>
      <point x="395" y="394" type="line"/>
      <point x="396" y="424" type="line"/>
      <point x="396" y="561"/>
      <point x="473" y="669"/>
      <point x="605" y="719" type="qcurve" smooth="yes"/>
      <point x="688" y="751" type="line" smooth="yes"/>
      <point x="814" y="799"/>
      <point x="814" y="993" type="qcurve" smooth="yes"/>
      <point x="814" y="1162"/>
      <point x="721" y="1249"/>
      <point x="538" y="1249" type="qcurve" smooth="yes"/>
      <point x="350" y="1249"/>
      <point x="253" y="1157"/>
      <point x="253" y="977" type="qcurve"/>
      <point x="254" y="938" type="line"/>
      <point x="109" y="938" type="line"/>
      <point x="110" y="983" type="line"/>
      <point x="110" y="1227"/>
      <point x="283" y="1379"/>
      <point x="561" y="1379" type="qcurve" smooth="yes"/>
      <point x="795" y="1379"/>
      <point x="961" y="1225"/>
      <point x="961" y="1007" type="qcurve" smooth="yes"/>
      <point x="961" y="695"/>
      <point x="768" y="626" type="qcurve" smooth="yes"/>
      <point x="684" y="596" type="line" smooth="yes"/>
      <point x="547" y="547"/>
      <point x="547" y="428" type="qcurve" smooth="yes"/>
    </contour>
  </outline>
</glyph>
<glyph name="A" format="1">
  <advance width="1246"/>
  <unicode hex="0041"/>
  <outline>
    <contour>
      <point x="969" y="289" type="line"/>
      <point x="278" y="289" type="line"/>
      <point x="173" y="0" type="line"/>
      <point x="10" y="0" type="line"/>
      <point x="510" y="1365" type="line"/>
      <point x="726" y="1365" type="line"/>
      <point x="1236" y="0" type="line"/>
      <point x="1075" y="0" type="line"/>
    </contour>
    <contour>
      <point x="924" y="405" type="line"/>
      <point x="621" y="1239" type="line"/>
      <point x="322" y="405" type="line"/>
    </contour>
  </outline>
</glyph>
<glyph name="B" format="1">
  <advance width="1264"/>
  <unicode hex="0042"/>
  <outline>
    <contour>
      <point x="130" y="0" type="line"/>
      <point x="130" y="1365" type="line"/>
      <point x="734" y="1365" type="line" smooth="yes"/>
      <point x="985" y="1365"/>
      <point x="1140" y="1227"/>
      <point x="1140" y="1004" type="qcurve" smooth="yes"/>
      <point x="1140" y="777"/>
      <point x="965" y="717" type="qcurve"/>
      <point x="965" y="714" type="line"/>
      <point x="1182" y="662"/>
      <point x="1182" y="393" type="qcurve" smooth="yes"/>
      <point x="1182" y="176"/>
      <point x="1011" y="0"/>
      <point x="799" y="0" type="qcurve" smooth="yes"/>
    </contour>
    <contour>
      <point x="284" y="765" type="line"/>
      <point x="689" y="765" type="line" smooth="yes"/>
      <point x="882" y="765"/>
      <point x="993" y="857"/>
      <point x="993" y="1016" type="qcurve" smooth="yes"/>
      <point x="993" y="1154"/>
      <point x="896" y="1235"/>
      <point x="731" y="1235" type="qcurve" smooth="yes"/>
      <point x="284" y="1235" type="line"/>
    </contour>
    <contour>
      <point x="284" y="130" type="line"/>
      <point x="611" y="130" type="line"/>
      <point x="750" y="131" type="line" smooth="yes"/>
      <point x="926" y="131"/>
      <point x="1035" y="222"/>
      <point x="1035" y="369" type="qcurve" smooth="yes"/>
      <point x="1035" y="552"/>
      <point x="925" y="635"/>
      <point x="681" y="635" type="qcurve" smooth="yes"/>
      <point x="284" y="635" type="line"/>
    </contour>
  </outline>
</glyph>
<glyph name="E" format="1">
  <advance width="1020"/>
  <unicode hex="0045"/>
  <outline>
    <contour>
      <point x="229" y="1235" type="line"/>
      <point x="229" y="770" type="line"/>
      <point x="922" y="770" type="line"/>
      <point x="922" y="640" type="line"/>
      <point x="229" y="640" type="line"/>
      <point x="229" y="130" type="line"/>
      <point x="952" y="130" type="line"/>
      <point x="952" y="0" type="line"/>
      <point x="75" y="0" type="line"/>
      <point x="75" y="1365" type="line"/>
      <point x="952" y="1365" type="line"/>
      <point x="952" y="1235" type="line"/>
    </contour>
  </outline>
</glyph>
<glyph name="F" format="1">
  <advance width="1001"/>
  <unicode hex="0046"/>
  <outline>
    <contour>
      <point x="284" y="1235" type="line"/>
      <point x="284" y="758" type="line"/>
      <point x="949" y="758" type="line"/>
      <point x="949" y="628" type="line"/>
      <point x="284" y="628" type="line"/>
      <point x="284" y="0" type="line"/>
      <point x="130" y="0" type="line"/>
      <point x="130" y="1365" type="line"/>
      <point x="967" y="1365" type="line"/>
      <point x="967" y="1235" type="line"/>
    </contour>
  </outline>
</glyph>
<glyph name="G" format="1">
  <advance width="1268"/>
  <unicode hex="0047"/>
  <outline>
    <contour>
      <point x="617" y="679" type="line"/>
      <point x="1202" y="679" type="line"/>
      <point x="1206" y="626"/>
      <point x="1206" y="530" type="qcurve" smooth="yes"/>
      <point x="1206" y="161"/>
      <point x="1025" y="-14"/>
      <point x="643" y="-14" type="qcurve" smooth="yes"/>
      <point x="282" y="-14"/>
      <point x="76" y="193"/>
      <point x="76" y="554" type="qcurve" smooth="yes"/>
      <point x="75" y="755" type="line"/>
      <point x="76" y="876" type="line" smooth="yes"/>
      <point x="76" y="1179"/>
      <point x="305" y="1379"/>
      <point x="652" y="1379" type="qcurve" smooth="yes"/>
      <point x="1000" y="1379"/>
      <point x="1202" y="1248"/>
      <point x="1202" y="1021" type="qcurve" smooth="yes"/>
      <point x="1202" y="969" type="line"/>
      <point x="1051" y="969" type="line"/>
      <point x="1051" y="1003" type="line" smooth="yes"/>
      <point x="1051" y="1170"/>
      <point x="914" y="1249"/>
      <point x="625" y="1249" type="qcurve" smooth="yes"/>
      <point x="358" y="1249"/>
      <point x="224" y="1122"/>
      <point x="224" y="868" type="qcurve" smooth="yes"/>
      <point x="222" y="687" type="line"/>
      <point x="223" y="492" type="line" smooth="yes"/>
      <point x="223" y="234"/>
      <point x="372" y="116"/>
      <point x="695" y="116" type="qcurve" smooth="yes"/>
      <point x="942" y="116"/>
      <point x="1059" y="228"/>
      <point x="1059" y="465" type="qcurve" smooth="yes"/>
      <point x="1059" y="484"/>
      <point x="1051" y="549" type="qcurve"/>
      <point x="617" y="549" type="line"/>
    </contour>
  </outline>
</glyph>
<glyph name="I" format="1">
  <advance width="417"/>
  <unicode hex="0049"/>
  <outline>
    <contour>
      <point x="284" y="1365" type="line"/>
      <point x="284" y="0" type="line"/>
      <point x="130" y="0" type="line"/>
      <point x="130" y="1365" type="line"/>
    </contour>
  </outline>
</glyph>
<glyph name="J" format="1">
  <advance width="1028"/>
  <unicode hex="004A"/>
  <outline>
    <contour>
      <point x="898" y="1365" type="line"/>
      <point x="898" y="402" type="line" smooth="yes"/>
      <point x="898" y="161"/>
      <point x="722" y="-14"/>
      <point x="480" y="-14" type="qcurve" smooth="yes"/>
      <point x="235" y="-14"/>
      <point x="53" y="135"/>
      <point x="53" y="335" type="qcurve" smooth="yes"/>
      <point x="53" y="428"/>
      <point x="56" y="497" type="qcurve"/>
      <point x="207" y="497" type="line"/>
      <point x="207" y="472" type="line"/>
      <point x="207" y="367" type="line" smooth="yes"/>
      <point x="207" y="200"/>
      <point x="297" y="116"/>
      <point x="474" y="116" type="qcurve" smooth="yes"/>
      <point x="649" y="116"/>
      <point x="744" y="226"/>
      <point x="744" y="427" type="qcurve" smooth="yes"/>
      <point x="744" y="1365" type="line"/>
    </contour>
  </outline>
</glyph>
<glyph name="L" format="1">
  <advance width="993"/>
  <unicode hex="004C"/>
  <outline>
    <contour>
      <point x="284" y="1365" type="line"/>
      <point x="284" y="143" type="line"/>
      <point x="986" y="143" type="line"/>
      <point x="986" y="0" type="line"/>
      <point x="130" y="0" type="line"/>
      <point x="130" y="1365" type="line"/>
    </contour>
  </outline>
</glyph>
<glyph name="N" format="1">
  <advance width="1426"/>
  <unicode hex="004E"/>
  <outline>
    <contour>
      <point x="1296" y="1365" type="line"/>
      <point x="1296" y="0" type="line"/>
      <point x="1043" y="0" type="line"/>
      <point x="471" y="929" type="line"/>
      <point x="378" y="1082" type="line"/>
      <point x="332" y="1158" type="line"/>
      <point x="286" y="1234" type="line"/>
      <point x="282" y="1234" type="line"/>
      <point x="283" y="1183" type="line"/>
      <point x="284" y="1131" type="line"/>
      <point x="284" y="1029" type="line"/>
      <point x="284" y="0" type="line"/>
      <point x="130" y="0" type="line"/>
      <point x="130" y="1365" type="line"/>
      <point x="382" y="1365" type="line"/>
      <point x="881" y="551" type="line"/>
      <point x="1011" y="337" type="line"/>
      <point x="1076" y="231" type="line"/>
      <point x="1140" y="124" type="line"/>
      <point x="1144" y="124" type="line"/>
      <point x="1143" y="175" type="line"/>
      <point x="1142" y="227" type="line"/>
      <point x="1142" y="329" type="line"/>
      <point x="1142" y="1365" type="line"/>
    </contour>
  </outline>
</glyph>
<glyph name="P" format="1">
  <advance width="1208"/>
  <unicode hex="0050"/>
  <outline>
    <contour>
      <point x="130" y="0" type="line"/>
      <point x="130" y="1365" type="line"/>
      <point x="703" y="1365" type="line"/>
      <point x="755" y="1365" type="line" smooth="yes"/>
      <point x="986" y="1365"/>
      <point x="1154" y="1187"/>
      <point x="1154" y="943" type="qcurve" smooth="yes"/>
      <point x="1154" y="709"/>
      <point x="979" y="539"/>
      <point x="738" y="539" type="qcurve"/>
      <point x="678" y="538" type="line"/>
      <point x="284" y="538" type="line"/>
      <point x="284" y="0" type="line"/>
    </contour>
    <contour>
      <point x="284" y="668" type="line"/>
      <point x="649" y="668" type="line" smooth="yes"/>
      <point x="878" y="668"/>
      <point x="1007" y="762"/>
      <point x="1007" y="931" type="qcurve" smooth="yes"/>
      <point x="1007" y="1129"/>
      <point x="920" y="1234"/>
      <point x="757" y="1234" type="qcurve" smooth="yes"/>
      <point x="698" y="1235" type="line"/>
      <point x="284" y="1235" type="line"/>
    </contour>
  </outline>
</glyph>
<glyph name="R" format="1">
  <advance width="1276"/>
  <unicode hex="0052"/>
  <outline>
    <contour>
      <point x="130" y="0" type="line"/>
      <point x="130" y="1365" type="line"/>
      <point x="780" y="1365" type="line" smooth="yes"/>
      <point x="1000" y="1365"/>
      <point x="1180" y="1191"/>
      <point x="1180" y="976" type="qcurve" smooth="yes"/>
      <point x="1180" y="787"/>
      <point x="1082" y="638"/>
      <point x="944" y="616" type="qcurve"/>
      <point x="944" y="613" type="line"/>
      <point x="1161" y="597"/>
      <point x="1161" y="349" type="qcurve" smooth="yes"/>
      <point x="1161" y="0" type="line"/>
      <point x="1007" y="0" type="line"/>
      <point x="1007" y="314" type="line" smooth="yes"/>
      <point x="1007" y="553"/>
      <point x="800" y="553" type="qcurve" smooth="yes"/>
      <point x="749" y="553" type="line"/>
      <point x="284" y="553" type="line"/>
      <point x="284" y="0" type="line"/>
    </contour>
    <contour>
      <point x="284" y="683" type="line"/>
      <point x="729" y="683" type="line" smooth="yes"/>
      <point x="905" y="683"/>
      <point x="1033" y="790"/>
      <point x="1033" y="938" type="qcurve" smooth="yes"/>
      <point x="1033" y="1123"/>
      <point x="938" y="1235"/>
      <point x="782" y="1235" type="qcurve" smooth="yes"/>
      <point x="284" y="1235" type="line"/>
    </contour>
  </outline>
</glyph>
<glyph name="S" format="1">
  <advance width="1146"/>
  <unicode hex="0053"/>
  <outline>
    <contour>
      <point x="1066" y="995" type="qcurve"/>
      <point x="913" y="995" type="line"/>
      <point x="913" y="1160"/>
      <point x="803" y="1249"/>
      <point x="599" y="1249" type="qcurve" smooth="yes"/>
      <point x="357" y="1249"/>
      <point x="217" y="1164"/>
      <point x="217" y="1017" type="qcurve" smooth="yes"/>
      <point x="217" y="852"/>
      <point x="327" y="780"/>
      <point x="599" y="767" type="qcurve" smooth="yes"/>
      <point x="918" y="753"/>
      <point x="1091" y="619"/>
      <point x="1091" y="386" type="qcurve" smooth="yes"/>
      <point x="1091" y="134"/>
      <point x="892" y="-14"/>
      <point x="552" y="-14" type="qcurve" smooth="yes"/>
      <point x="257" y="-14"/>
      <point x="62" y="135"/>
      <point x="62" y="361" type="qcurve" smooth="yes"/>
      <point x="61" y="422" type="line"/>
      <point x="214" y="422" type="line"/>
      <point x="214" y="388" type="line" smooth="yes"/>
      <point x="214" y="205"/>
      <point x="326" y="116"/>
      <point x="557" y="116" type="qcurve" smooth="yes"/>
      <point x="822" y="116"/>
      <point x="944" y="205"/>
      <point x="944" y="398" type="qcurve" smooth="yes"/>
      <point x="944" y="523"/>
      <point x="861" y="606"/>
      <point x="729" y="614" type="qcurve" smooth="yes"/>
      <point x="569" y="622" type="line"/>
      <point x="417" y="630" type="line"/>
      <point x="70" y="654"/>
      <point x="70" y="990" type="qcurve" smooth="yes"/>
      <point x="70" y="1223"/>
      <point x="272" y="1379"/>
      <point x="574" y="1379" type="qcurve" smooth="yes"/>
      <point x="880" y="1379"/>
      <point x="1066" y="1234"/>
    </contour>
  </outline>
</glyph>
<glyph name="T" format="1">
  <advance width="1054"/>
  <unicode hex="0054"/>
  <outline>
    <contour>
      <point x="606" y="1222" type="line"/>
      <point x="606" y="0" type="line"/>
      <point x="452" y="0" type="line"/>
      <point x="452" y="1222" type="line"/>
      <point x="7" y="1222" type="line"/>
      <point x="7" y="1365" type="line"/>
      <point x="1047" y="1365" type="line"/>
      <point x="1047" y="1222" type="line"/>
    </contour>
  </outline>
</glyph>
<glyph name="U" format="1">
  <advance width="1341"/>
  <unicode hex="0055"/>
  <outline>
    <contour>
      <point x="1058" y="1365" type="line"/>
      <point x="1212" y="1365" type="line"/>
      <point x="1212" y="409" type="line" smooth="yes"/>
      <point x="1212" y="149"/>
      <point x="1003" y="-14"/>
      <point x="669" y="-14" type="qcurve" smooth="yes"/>
      <point x="356" y="-14"/>
      <point x="131" y="143"/>
      <point x="131" y="363" type="qcurve" smooth="yes"/>
      <point x="131" y="409" type="line"/>
      <point x="131" y="1365" type="line"/>
      <point x="285" y="1365" type="line"/>
      <point x="285" y="409" type="line" smooth="yes"/>
      <point x="285" y="215"/>
      <point x="411" y="116"/>
      <point x="658" y="116" type="qcurve" smooth="yes"/>
      <point x="926" y="116"/>
      <point x="1058" y="213"/>
      <point x="1058" y="409" type="qcurve" smooth="yes"/>
    </contour>
  </outline>
</glyph>
<glyph name="V" format="1">
  <advance width="1171"/>
  <unicode hex="0056"/>
  <outline>
    <contour>
      <point x="1016" y="1365" type="line"/>
      <point x="1181" y="1365" type="line"/>
      <point x="698" y="0" type="line"/>
      <point x="478" y="0" type="line"/>
      <point x="-10" y="1365" type="line"/>
      <point x="154" y="1365" type="line"/>
      <point x="518" y="334" type="line"/>
      <point x="554" y="229" type="line" smooth="yes"/>
      <point x="574" y="168"/>
      <point x="587" y="124" type="qcurve"/>
      <point x="591" y="124" type="line"/>
      <point x="621" y="225"/>
      <point x="658" y="332" type="qcurve" smooth="yes"/>
    </contour>
  </outline>
</glyph>
<glyph name="Y" format="1">
  <advance width="1152"/>
  <unicode hex="0059"/>
  <outline>
    <contour>
      <point x="1163" y="1365" type="line"/>
      <point x="647" y="570" type="line"/>
      <point x="647" y="0" type="line"/>
      <point x="493" y="0" type="line"/>
      <point x="493" y="570" type="line"/>
      <point x="-10" y="1365" type="line"/>
      <point x="169" y="1365" type="line"/>
      <point x="462" y="904" type="line"/>
      <point x="518" y="815" type="line" smooth="yes"/>
      <point x="529" y="799"/>
      <point x="546" y="771" type="qcurve" smooth="yes"/>
      <point x="573" y="726" type="line"/>
      <point x="577" y="726" type="line"/>
      <point x="595" y="756"/>
      <point x="604" y="771" type="qcurve" smooth="yes"/>
      <point x="631" y="815" type="line"/>
      <point x="688" y="904" type="line"/>
      <point x="980" y="1365" type="line"/>
    </contour>
  </outline>
</glyph>
<glyph name="Z" format="1">
  <advance width="1161"/>
  <unicode hex="005A"/>
  <outline>
    <contour>
      <point x="1095" y="1365" type="line"/>
      <point x="1095" y="1235" type="line"/>
      <point x="236" y="133" type="line"/>
      <point x="236" y="130" type="line"/>
      <point x="1113" y="130" type="line"/>
      <point x="1113" y="0" type="line"/>
      <point x="48" y="0" type="line"/>
      <point x="48" y="133" type="line"/>
      <point x="905" y="1232" type="line"/>
      <point x="905" y="1235" type="line"/>
      <point x="73" y="1235" type="line"/>
      <point x="73" y="1365" type="line"/>
    </contour>
  </outline>
</glyph>
<glyph name="asciicircum" format="1">
  <advance width="914"/>
  <unicode hex="005E"/>
  <outline>
    <contour>
      <point x="152" y="752" type="line"/>
      <point x="0" y="752" type="line"/>
      <point x="365" y="1369" type="line"/>
      <point x="549" y="1369" type="line"/>
      <point x="914" y="752" type="line"/>
      <point x="761" y="752" type="line"/>
      <point x="455" y="1258" type="line"/>
    </contour>
  </outline>
</glyph>
<glyph name="grave" format="1">
  <advance width="1024"/>
  <unicode hex="0060"/>
  <outline>
    <contour>
      <point x="358" y="1351" type="line"/>
      <point x="629" y="1146" type="line"/>
      <point x="580" y="1072" type="line"/>
      <point x="286" y="1253" type="line"/>
    </contour>
  </outline>
</glyph>
<glyph name="a" format="1">
  <advance width="1044"/>
  <unicode hex="0061"/>
  <outline>
    <contour>
      <point x="269" y="688" type="qcurve"/>
      <point x="130" y="688" type="line"/>
      <point x="130" y="855"/>
      <point x="281" y="970"/>
      <point x="501" y="970" type="qcurve" smooth="yes"/>
      <point x="740" y="970"/>
      <point x="908" y="829"/>
      <point x="908" y="631" type="qcurve" smooth="yes"/>
      <point x="908" y="0" type="line"/>
      <point x="768" y="0" type="line"/>
      <point x="779" y="103" type="line"/>
      <point x="776" y="104" type="line"/>
      <point x="696" y="-14"/>
      <point x="451" y="-14" type="qcurve" smooth="yes"/>
      <point x="89" y="-14"/>
      <point x="89" y="277" type="qcurve" smooth="yes"/>
      <point x="89" y="450"/>
      <point x="251" y="582"/>
      <point x="463" y="582" type="qcurve" smooth="yes"/>
      <point x="715" y="582"/>
      <point x="765" y="483" type="qcurve"/>
      <point x="768" y="484" type="line"/>
      <point x="768" y="600" type="line" smooth="yes"/>
      <point x="768" y="764"/>
      <point x="678" y="861"/>
      <point x="526" y="861" type="qcurve" smooth="yes"/>
      <point x="268" y="861"/>
      <point x="268" y="716" type="qcurve" smooth="yes"/>
      <point x="268" y="709"/>
    </contour>
    <contour>
      <point x="494" y="473" type="qcurve" smooth="yes"/>
      <point x="333" y="473"/>
      <point x="236" y="405"/>
      <point x="236" y="293" type="qcurve" smooth="yes"/>
      <point x="236" y="177"/>
      <point x="332" y="102"/>
      <point x="479" y="102" type="qcurve" smooth="yes"/>
      <point x="775" y="102"/>
      <point x="775" y="282" type="qcurve" smooth="yes"/>
      <point x="775" y="395"/>
      <point x="660" y="473"/>
    </contour>
  </outline>
</glyph>
<glyph name="b" format="1">
  <advance width="1047"/>
  <unicode hex="0062"/>
  <outline>
    <contour>
      <point x="123" y="0" type="line"/>
      <point x="123" y="1365" type="line"/>
      <point x="263" y="1365" type="line"/>
      <point x="263" y="834" type="line"/>
      <point x="266" y="831" type="line"/>
      <point x="314" y="970"/>
      <point x="580" y="970" type="qcurve" smooth="yes"/>
      <point x="790" y="970"/>
      <point x="950" y="752"/>
      <point x="950" y="466" type="qcurve" smooth="yes"/>
      <point x="950" y="195"/>
      <point x="781" y="-14"/>
      <point x="560" y="-14" type="qcurve" smooth="yes"/>
      <point x="335" y="-14"/>
      <point x="260" y="119" type="qcurve"/>
      <point x="256" y="118" type="line"/>
      <point x="263" y="0" type="line"/>
    </contour>
    <contour>
      <point x="544" y="854" type="qcurve" smooth="yes"/>
      <point x="379" y="854"/>
      <point x="267" y="713"/>
      <point x="267" y="503" type="qcurve" smooth="yes"/>
      <point x="267" y="244"/>
      <point x="368" y="102"/>
      <point x="550" y="102" type="qcurve" smooth="yes"/>
      <point x="704" y="102"/>
      <point x="803" y="247"/>
      <point x="803" y="472" type="qcurve" smooth="yes"/>
      <point x="803" y="709"/>
      <point x="705" y="854"/>
    </contour>
  </outline>
</glyph>
<glyph name="c" format="1">
  <advance width="993"/>
  <unicode hex="0063"/>
  <outline>
    <contour>
      <point x="780" y="345" type="qcurve"/>
      <point x="920" y="345" type="line"/>
      <point x="921" y="293" type="line"/>
      <point x="921" y="-14"/>
      <point x="519" y="-14" type="qcurve" smooth="yes"/>
      <point x="261" y="-14"/>
      <point x="95" y="180"/>
      <point x="95" y="483" type="qcurve" smooth="yes"/>
      <point x="95" y="767"/>
      <point x="264" y="970"/>
      <point x="501" y="970" type="qcurve" smooth="yes"/>
      <point x="734" y="970"/>
      <point x="904" y="833"/>
      <point x="904" y="644" type="qcurve"/>
      <point x="764" y="644" type="line"/>
      <point x="764" y="669" type="line" smooth="yes"/>
      <point x="764" y="780"/>
      <point x="654" y="854"/>
      <point x="490" y="854" type="qcurve" smooth="yes"/>
      <point x="332" y="854"/>
      <point x="242" y="714"/>
      <point x="242" y="470" type="qcurve" smooth="yes"/>
      <point x="242" y="232"/>
      <point x="345" y="102"/>
      <point x="534" y="102" type="qcurve" smooth="yes"/>
      <point x="694" y="102"/>
      <point x="780" y="187"/>
    </contour>
  </outline>
</glyph>
<glyph name="e" format="1">
  <advance width="1029"/>
  <unicode hex="0065"/>
  <outline>
    <contour>
      <point x="788" y="289" type="line"/>
      <point x="931" y="289" type="line"/>
      <point x="932" y="254" type="line"/>
      <point x="932" y="105"/>
      <point x="751" y="-14"/>
      <point x="524" y="-14" type="qcurve" smooth="yes"/>
      <point x="260" y="-14"/>
      <point x="95" y="179"/>
      <point x="95" y="488" type="qcurve" smooth="yes"/>
      <point x="95" y="774"/>
      <point x="261" y="970"/>
      <point x="503" y="970" type="qcurve" smooth="yes"/>
      <point x="767" y="970"/>
      <point x="931" y="800"/>
      <point x="931" y="527" type="qcurve" smooth="yes"/>
      <point x="931" y="452" type="line"/>
      <point x="243" y="452" type="line"/>
      <point x="243" y="226"/>
      <point x="340" y="102"/>
      <point x="518" y="102" type="qcurve" smooth="yes"/>
      <point x="687" y="102"/>
      <point x="788" y="161"/>
      <point x="788" y="259" type="qcurve" smooth="yes"/>
    </contour>
    <contour>
      <point x="788" y="561" type="line"/>
      <point x="787" y="606" type="line" smooth="yes"/>
      <point x="787" y="761"/>
      <point x="685" y="854"/>
      <point x="516" y="854" type="qcurve" smooth="yes"/>
      <point x="346" y="854"/>
      <point x="245" y="745"/>
      <point x="245" y="561" type="qcurve"/>
    </contour>
  </outline>
</glyph>
<glyph name="g" format="1">
  <advance width="1045"/>
  <unicode hex="0067"/>
  <outline>
    <contour>
      <point x="923" y="956" type="line"/>
      <point x="923" y="-62" type="line" smooth="yes"/>
      <point x="923" y="-270"/>
      <point x="743" y="-426"/>
      <point x="503" y="-426" type="qcurve" smooth="yes"/>
      <point x="289" y="-426"/>
      <point x="133" y="-294"/>
      <point x="133" y="-113" type="qcurve"/>
      <point x="268" y="-113" type="line"/>
      <point x="268" y="-236"/>
      <point x="359" y="-310"/>
      <point x="513" y="-310" type="qcurve" smooth="yes"/>
      <point x="673" y="-310"/>
      <point x="783" y="-214"/>
      <point x="783" y="-74" type="qcurve" smooth="yes"/>
      <point x="783" y="118" type="line"/>
      <point x="780" y="119" type="line"/>
      <point x="726" y="-14"/>
      <point x="468" y="-14" type="qcurve" smooth="yes"/>
      <point x="256" y="-14"/>
      <point x="96" y="195"/>
      <point x="96" y="472" type="qcurve" smooth="yes"/>
      <point x="96" y="759"/>
      <point x="259" y="970"/>
      <point x="480" y="970" type="qcurve" smooth="yes"/>
      <point x="715" y="970"/>
      <point x="787" y="826" type="qcurve"/>
      <point x="790" y="827" type="line"/>
      <point x="783" y="956" type="line"/>
    </contour>
    <contour>
      <point x="506" y="854" type="qcurve" smooth="yes"/>
      <point x="341" y="854"/>
      <point x="243" y="715"/>
      <point x="243" y="480" type="qcurve" smooth="yes"/>
      <point x="243" y="243"/>
      <point x="341" y="102"/>
      <point x="506" y="102" type="qcurve" smooth="yes"/>
      <point x="673" y="102"/>
      <point x="779" y="257"/>
      <point x="779" y="502" type="qcurve" smooth="yes"/>
      <point x="779" y="718"/>
      <point x="673" y="854"/>
    </contour>
  </outline>
</glyph>
<glyph name="h" format="1">
  <advance width="1053"/>
  <unicode hex="0068"/>
  <outline>
    <contour>
      <point x="263" y="1365" type="line"/>
      <point x="263" y="838" type="line"/>
      <point x="266" y="836" type="line"/>
      <point x="319" y="970"/>
      <point x="562" y="970" type="qcurve" smooth="yes"/>
      <point x="922" y="970"/>
      <point x="922" y="650" type="qcurve" smooth="yes"/>
      <point x="922" y="611" type="line"/>
      <point x="922" y="0" type="line"/>
      <point x="782" y="0" type="line"/>
      <point x="782" y="611" type="line"/>
      <point x="782" y="638" type="line" smooth="yes"/>
      <point x="782" y="854"/>
      <point x="561" y="854" type="qcurve" smooth="yes"/>
      <point x="383" y="854"/>
      <point x="263" y="727"/>
      <point x="263" y="538" type="qcurve" smooth="yes"/>
      <point x="263" y="0" type="line"/>
      <point x="123" y="0" type="line"/>
      <point x="123" y="1365" type="line"/>
    </contour>
  </outline>
</glyph>
<glyph name="i" format="1">
  <advance width="385"/>
  <unicode hex="0069"/>
  <outline>
    <contour>
      <point x="263" y="1365" type="line"/>
      <point x="263" y="1208" type="line"/>
      <point x="123" y="1208" type="line"/>
      <point x="123" y="1365" type="line"/>
    </contour>
    <contour>
      <point x="263" y="956" type="line"/>
      <point x="263" y="0" type="line"/>
      <point x="123" y="0" type="line"/>
      <point x="123" y="956" type="line"/>
    </contour>
  </outline>
</glyph>
<glyph name="j" format="1">
  <advance width="381"/>
  <unicode hex="006A"/>
  <outline>
    <contour>
      <point x="254" y="1365" type="line"/>
      <point x="254" y="1208" type="line"/>
      <point x="114" y="1208" type="line"/>
      <point x="114" y="1365" type="line"/>
    </contour>
    <contour>
      <point x="254" y="956" type="line"/>
      <point x="254" y="-88" type="line"/>
      <point x="254" y="-129" type="line" smooth="yes"/>
      <point x="254" y="-366"/>
      <point x="57" y="-366" type="qcurve" smooth="yes"/>
      <point x="28" y="-366"/>
      <point x="-10" y="-359" type="qcurve"/>
      <point x="-10" y="-260" type="line"/>
      <point x="2" y="-258"/>
      <point x="6" y="-258" type="qcurve" smooth="yes"/>
      <point x="24" y="-257" type="line"/>
      <point x="82" y="-238" type="line"/>
      <point x="114" y="-211"/>
      <point x="114" y="-88" type="qcurve" smooth="yes"/>
      <point x="114" y="956" type="line"/>
    </contour>
  </outline>
</glyph>
<glyph name="k" format="1">
  <advance width="881"/>
  <unicode hex="006B"/>
  <outline>
    <contour>
      <point x="263" y="1365" type="line"/>
      <point x="263" y="572" type="line"/>
      <point x="327" y="572" type="line"/>
      <point x="665" y="956" type="line"/>
      <point x="841" y="956" type="line"/>
      <point x="432" y="517" type="line"/>
      <point x="915" y="0" type="line"/>
      <point x="726" y="0" type="line"/>
      <point x="320" y="463" type="line"/>
      <point x="263" y="463" type="line"/>
      <point x="263" y="0" type="line"/>
      <point x="123" y="0" type="line"/>
      <point x="123" y="1365" type="line"/>
    </contour>
  </outline>
</glyph>
<glyph name="o" format="1">
  <advance width="1036"/>
  <unicode hex="006F"/>
  <outline>
    <contour>
      <point x="518" y="970" type="qcurve" smooth="yes"/>
      <point x="783" y="970"/>
      <point x="941" y="786"/>
      <point x="941" y="478" type="qcurve" smooth="yes"/>
      <point x="941" y="170"/>
      <point x="783" y="-14"/>
      <point x="518" y="-14" type="qcurve" smooth="yes"/>
      <point x="254" y="-14"/>
      <point x="96" y="170"/>
      <point x="96" y="478" type="qcurve" smooth="yes"/>
      <point x="96" y="786"/>
      <point x="254" y="970"/>
    </contour>
    <contour>
      <point x="518" y="854" type="qcurve" smooth="yes"/>
      <point x="332" y="854"/>
      <point x="243" y="733"/>
      <point x="243" y="478" type="qcurve" smooth="yes"/>
      <point x="243" y="223"/>
      <point x="332" y="102"/>
      <point x="518" y="102" type="qcurve" smooth="yes"/>
      <point x="705" y="102"/>
      <point x="794" y="223"/>
      <point x="794" y="478" type="qcurve" smooth="yes"/>
      <point x="794" y="733"/>
      <point x="705" y="854"/>
    </contour>
  </outline>
</glyph>
<glyph name="t" format="1">
  <advance width="667"/>
  <unicode hex="0074"/>
  <outline>
    <contour>
      <point x="630" y="956" type="line"/>
      <point x="630" y="840" type="line"/>
      <point x="262" y="840" type="line"/>
      <point x="262" y="255" type="line" smooth="yes"/>
      <point x="262" y="102"/>
      <point x="398" y="102" type="qcurve" smooth="yes"/>
      <point x="533" y="102"/>
      <point x="533" y="239" type="qcurve" smooth="yes"/>
      <point x="534" y="286" type="line"/>
      <point x="536" y="339" type="line"/>
      <point x="666" y="339" type="line"/>
      <point x="667" y="268" type="line" smooth="yes"/>
      <point x="667" y="-14"/>
      <point x="399" y="-14" type="qcurve" smooth="yes"/>
      <point x="122" y="-14"/>
      <point x="122" y="221" type="qcurve" smooth="yes"/>
      <point x="122" y="255" type="line"/>
      <point x="122" y="840" type="line"/>
      <point x="-10" y="840" type="line"/>
      <point x="-10" y="956" type="line"/>
      <point x="122" y="956" type="line"/>
      <point x="122" y="1186" type="line"/>
      <point x="262" y="1186" type="line"/>
      <point x="262" y="956" type="line"/>
    </contour>
  </outline>
</glyph>
<glyph name="v" format="1">
  <advance width="824"/>
  <unicode hex="0076"/>
  <outline>
    <contour>
      <point x="831" y="956" type="line"/>
      <point x="511" y="0" type="line"/>
      <point x="310" y="0" type="line"/>
      <point x="-7" y="956" type="line"/>
      <point x="137" y="956" type="line"/>
      <point x="306" y="436" type="line"/>
      <point x="359" y="273" type="line"/>
      <point x="384" y="191" type="line"/>
      <point x="410" y="109" type="line"/>
      <point x="414" y="109" type="line"/>
      <point x="438" y="190" type="line"/>
      <point x="462" y="272" type="line"/>
      <point x="513" y="434" type="line"/>
      <point x="675" y="956" type="line"/>
    </contour>
  </outline>
</glyph>
<glyph name="x" format="1">
  <advance width="827"/>
  <unicode hex="0078"/>
  <outline>
    <contour>
      <point x="797" y="956" type="line"/>
      <point x="487" y="506" type="line"/>
      <point x="834" y="0" type="line"/>
      <point x="667" y="0" type="line"/>
      <point x="414" y="386" type="line"/>
      <point x="160" y="0" type="line"/>
      <point x="-7" y="0" type="line"/>
      <point x="340" y="500" type="line"/>
      <point x="29" y="956" type="line"/>
      <point x="197" y="956" type="line"/>
      <point x="414" y="607" type="line"/>
      <point x="630" y="956" type="line"/>
    </contour>
  </outline>
</glyph>
<glyph name="y" format="1">
  <advance width="796"/>
  <unicode hex="0079"/>
  <outline>
    <contour>
      <point x="802" y="956" type="line"/>
      <point x="531" y="-55" type="line" smooth="yes"/>
      <point x="474" y="-269"/>
      <point x="335" y="-429"/>
      <point x="206" y="-429" type="qcurve" smooth="yes"/>
      <point x="180" y="-429"/>
      <point x="139" y="-422" type="qcurve"/>
      <point x="139" y="-306" type="line"/>
      <point x="168" y="-312"/>
      <point x="188" y="-313" type="qcurve" smooth="yes"/>
      <point x="301" y="-319"/>
      <point x="356" y="-130" type="qcurve" smooth="yes"/>
      <point x="383" y="-36" type="line" smooth="yes"/>
      <point x="384" y="-31"/>
      <point x="392" y="0" type="qcurve"/>
      <point x="339" y="0" type="line"/>
      <point x="-7" y="956" type="line"/>
      <point x="142" y="956" type="line"/>
      <point x="289" y="530" type="line"/>
      <point x="363" y="318" type="line"/>
      <point x="399" y="211" type="line"/>
      <point x="436" y="105" type="line"/>
      <point x="440" y="105" type="line"/>
      <point x="466" y="211" type="line"/>
      <point x="491" y="318" type="line"/>
      <point x="545" y="530" type="line"/>
      <point x="653" y="956" type="line"/>
    </contour>
  </outline>
</glyph>
<glyph name="z" format="1">
  <advance width="826"/>
  <unicode hex="007A"/>
  <outline>
    <contour>
      <point x="92" y="956" type="line"/>
      <point x="781" y="956" type="line"/>
      <point x="781" y="820" type="line"/>
      <point x="211" y="116" type="line"/>
      <point x="781" y="116" type="line"/>
      <point x="781" y="0" type="line"/>
      <point x="44" y="0" type="line"/>
      <point x="44" y="133" type="line"/>
      <point x="616" y="840" type="line"/>
      <point x="92" y="840" type="line"/>
    </contour>
  </outline>
</glyph>
<glyph name="braceright" format="1">
  <advance width="783"/>
  <unicode hex="007D"/>
  <outline>
    <contour>
      <point x="488" y="477" type="qcurve"/>
      <point x="360" y="537"/>
      <point x="360" y="714" type="qcurve" smooth="yes"/>
      <point x="360" y="1055" type="line" smooth="yes"/>
      <point x="360" y="1252"/>
      <point x="185" y="1252" type="qcurve" smooth="yes"/>
      <point x="171" y="1252" type="line"/>
      <point x="171" y="1365" type="line"/>
      <point x="261" y="1365" type="line" smooth="yes"/>
      <point x="500" y="1365"/>
      <point x="500" y="1058" type="qcurve" smooth="yes"/>
      <point x="500" y="720" type="line" smooth="yes"/>
      <point x="500" y="568"/>
      <point x="613" y="533" type="qcurve"/>
      <point x="613" y="420" type="line"/>
      <point x="500" y="384"/>
      <point x="500" y="233" type="qcurve" smooth="yes"/>
      <point x="500" y="-105" type="line" smooth="yes"/>
      <point x="500" y="-410"/>
      <point x="261" y="-410" type="qcurve" smooth="yes"/>
      <point x="171" y="-410" type="line"/>
      <point x="171" y="-299" type="line"/>
      <point x="360" y="-299"/>
      <point x="360" y="-102" type="qcurve" smooth="yes"/>
      <point x="360" y="239" type="line" smooth="yes"/>
      <point x="360" y="416"/>
    </contour>
  </outline>
</glyph>
<glyph name="sterling" format="1">
  <advance width="1257"/>
  <unicode hex="00A3"/>
  <outline>
    <contour>
      <point x="805" y="664" type="line"/>
      <point x="805" y="534" type="line"/>
      <point x="418" y="534" type="line"/>
      <point x="418" y="470" type="line"/>
      <point x="419" y="361" type="line"/>
      <point x="404" y="239" type="line"/>
      <point x="386" y="178"/>
      <point x="304" y="120" type="qcurve"/>
      <point x="304" y="117" type="line"/>
      <point x="1189" y="127" type="line"/>
      <point x="1189" y="0" type="line"/>
      <point x="127" y="0" type="line"/>
      <point x="127" y="117" type="line"/>
      <point x="264" y="147"/>
      <point x="264" y="421" type="qcurve" smooth="yes"/>
      <point x="264" y="534" type="line"/>
      <point x="95" y="534" type="line"/>
      <point x="95" y="664" type="line"/>
      <point x="264" y="664" type="line"/>
      <point x="264" y="872" type="line"/>
      <point x="262" y="993" type="line"/>
      <point x="269" y="1106" type="line"/>
      <point x="306" y="1379"/>
      <point x="702" y="1379" type="qcurve" smooth="yes"/>
      <point x="968" y="1379"/>
      <point x="1165" y="1229"/>
      <point x="1165" y="1027" type="qcurve"/>
      <point x="1163" y="957" type="line"/>
      <point x="1015" y="957" type="line"/>
      <point x="1015" y="991" type="line" smooth="yes"/>
      <point x="1015" y="1160"/>
      <point x="915" y="1249"/>
      <point x="728" y="1249" type="qcurve" smooth="yes"/>
      <point x="524" y="1249"/>
      <point x="419" y="1160"/>
      <point x="419" y="988" type="qcurve" smooth="yes"/>
      <point x="418" y="938" type="line"/>
      <point x="418" y="664" type="line"/>
    </contour>
  </outline>
</glyph>
<glyph name="currency" format="1">
  <advance width="1365"/>
  <unicode hex="00A4"/>
  <outline>
    <contour>
      <point x="119" y="250" type="line"/>
      <point x="309" y="443" type="line"/>
      <point x="205" y="579"/>
      <point x="205" y="733" type="qcurve" smooth="yes"/>
      <point x="205" y="885"/>
      <point x="309" y="1024" type="qcurve"/>
      <point x="114" y="1217" type="line"/>
      <point x="194" y="1297" type="line"/>
      <point x="387" y="1104" type="line"/>
      <point x="530" y="1211"/>
      <point x="686" y="1211" type="qcurve" smooth="yes"/>
      <point x="837" y="1211"/>
      <point x="976" y="1105" type="qcurve"/>
      <point x="1170" y="1296" type="line"/>
      <point x="1249" y="1217" type="line"/>
      <point x="1057" y="1026" type="line"/>
      <point x="1162" y="884"/>
      <point x="1162" y="732" type="qcurve" smooth="yes"/>
      <point x="1162" y="583"/>
      <point x="1059" y="443" type="qcurve"/>
      <point x="1252" y="250" type="line"/>
      <point x="1173" y="170" type="line"/>
      <point x="980" y="363" type="line"/>
      <point x="843" y="258"/>
      <point x="683" y="258" type="qcurve" smooth="yes"/>
      <point x="537" y="258"/>
      <point x="390" y="363" type="qcurve"/>
      <point x="198" y="170" type="line"/>
    </contour>
    <contour>
      <point x="684" y="1081" type="qcurve" smooth="yes"/>
      <point x="540" y="1081"/>
      <point x="338" y="877"/>
      <point x="338" y="733" type="qcurve" smooth="yes"/>
      <point x="338" y="591"/>
      <point x="541" y="388"/>
      <point x="684" y="388" type="qcurve" smooth="yes"/>
      <point x="826" y="388"/>
      <point x="1029" y="591"/>
      <point x="1029" y="733" type="qcurve" smooth="yes"/>
      <point x="1029" y="878"/>
      <point x="827" y="1081"/>
    </contour>
  </outline>
</glyph>
<glyph name="dieresis" format="1">
  <advance width="1024"/>
  <unicode hex="00A8"/>
  <outline>
    <contour>
      <point x="404" y="1256" type="line"/>
      <point x="404" y="1126" type="line"/>
      <point x="250" y="1126" type="line"/>
      <point x="250" y="1256" type="line"/>
    </contour>
    <contour>
      <point x="774" y="1256" type="line"/>
      <point x="774" y="1126" type="line"/>
      <point x="620" y="1126" type="line"/>
      <point x="620" y="1256" type="line"/>
    </contour>
  </outline>
</glyph>
<glyph name="ordfeminine" format="1">
  <advance width="837"/>
  <unicode hex="00AA"/>
  <outline>
    <contour>
      <point x="269" y="1202" type="line"/>
      <point x="171" y="1202" type="line"/>
      <point x="171" y="1304"/>
      <point x="263" y="1373"/>
      <point x="401" y="1373" type="qcurve" smooth="yes"/>
      <point x="656" y="1373"/>
      <point x="656" y="1177" type="qcurve" smooth="yes"/>
      <point x="656" y="819" type="line"/>
      <point x="553" y="819" type="line"/>
      <point x="559" y="864" type="line"/>
      <point x="496" y="811"/>
      <point x="380" y="811" type="qcurve" smooth="yes"/>
      <point x="147" y="811"/>
      <point x="147" y="979" type="qcurve" smooth="yes"/>
      <point x="147" y="1156"/>
      <point x="378" y="1156" type="qcurve" smooth="yes"/>
      <point x="501" y="1156"/>
      <point x="554" y="1115" type="qcurve"/>
      <point x="554" y="1160" type="line" smooth="yes"/>
      <point x="554" y="1250"/>
      <point x="503" y="1301"/>
      <point x="412" y="1301" type="qcurve" smooth="yes"/>
      <point x="268" y="1301"/>
      <point x="268" y="1225" type="qcurve" smooth="yes"/>
    </contour>
    <contour>
      <point x="396" y="1084" type="qcurve" smooth="yes"/>
      <point x="249" y="1084"/>
      <point x="249" y="986" type="qcurve" smooth="yes"/>
      <point x="249" y="883"/>
      <point x="394" y="883" type="qcurve" smooth="yes"/>
      <point x="558" y="883"/>
      <point x="558" y="980" type="qcurve" smooth="yes"/>
      <point x="558" y="1084"/>
    </contour>
    <contour>
      <point x="119" y="724" type="line"/>
      <point x="691" y="724" type="line"/>
      <point x="691" y="642" type="line"/>
      <point x="117" y="642" type="line"/>
    </contour>
  </outline>
</glyph>
<glyph name="plusminus" format="1">
  <advance width="1257"/>
  <unicode hex="00B1"/>
  <outline>
    <contour>
      <point x="148" y="896" type="line"/>
      <point x="552" y="896" type="line"/>
      <point x="552" y="1250" type="line"/>
      <point x="706" y="1250" type="line"/>
      <point x="706" y="896" type="line"/>
      <point x="1108" y="896" type="line"/>
      <point x="1108" y="753" type="line"/>
      <point x="706" y="753" type="line"/>
      <point x="706" y="403" type="line"/>
      <point x="552" y="403" type="line"/>
      <point x="552" y="753" type="line"/>
      <point x="148" y="753" type="line"/>
    </contour>
    <contour>
      <point x="148" y="267" type="line"/>
      <point x="1108" y="267" type="line"/>
      <point x="1108" y="124" type="line"/>
      <point x="148" y="124" type="line"/>
    </contour>
  </outline>
</glyph>
<glyph name="twosuperior" format="1">
  <advance width="826"/>
  <unicode hex="00B2"/>
  <outline>
    <contour>
      <point x="713" y="636" type="line"/>
      <point x="713" y="544" type="line"/>
      <point x="80" y="544" type="line"/>
      <point x="80" y="704" type="line" smooth="yes"/>
      <point x="80" y="835"/>
      <point x="190" y="918"/>
      <point x="393" y="939" type="qcurve" smooth="yes"/>
      <point x="552" y="956"/>
      <point x="614" y="1009"/>
      <point x="614" y="1125" type="qcurve" smooth="yes"/>
      <point x="614" y="1227"/>
      <point x="542" y="1284"/>
      <point x="411" y="1284" type="qcurve" smooth="yes"/>
      <point x="265" y="1284"/>
      <point x="188" y="1236"/>
      <point x="188" y="1145" type="qcurve" smooth="yes"/>
      <point x="189" y="1077" type="line"/>
      <point x="81" y="1077" type="line"/>
      <point x="82" y="1126" type="line" smooth="yes"/>
      <point x="82" y="1272"/>
      <point x="214" y="1373"/>
      <point x="405" y="1373" type="qcurve" smooth="yes"/>
      <point x="591" y="1373"/>
      <point x="716" y="1268"/>
      <point x="716" y="1112" type="qcurve" smooth="yes"/>
      <point x="716" y="965"/>
      <point x="601" y="864"/>
      <point x="411" y="846" type="qcurve" smooth="yes"/>
      <point x="250" y="831"/>
      <point x="190" y="780"/>
      <point x="190" y="656" type="qcurve" smooth="yes"/>
      <point x="190" y="636" type="line"/>
    </contour>
  </outline>
</glyph>
<glyph name="acute" format="1">
  <advance width="1024"/>
  <unicode hex="00B4"/>
  <outline>
    <contour>
      <point x="666" y="1351" type="line"/>
      <point x="738" y="1253" type="line"/>
      <point x="443" y="1072" type="line"/>
      <point x="395" y="1146" type="line"/>
    </contour>
  </outline>
</glyph>
<glyph name="paragraph" format="1">
  <advance width="1260"/>
  <unicode hex="00B6"/>
  <outline>
    <contour>
      <point x="1092" y="-410" type="line"/>
      <point x="952" y="-410" type="line"/>
      <point x="952" y="1235" type="line"/>
      <point x="792" y="1235" type="line"/>
      <point x="792" y="-410" type="line"/>
      <point x="652" y="-410" type="line"/>
      <point x="652" y="535" type="line"/>
      <point x="572" y="535" type="line"/>
      <point x="525" y="536" type="line"/>
      <point x="277" y="536"/>
      <point x="96" y="706"/>
      <point x="96" y="939" type="qcurve" smooth="yes"/>
      <point x="96" y="1184"/>
      <point x="266" y="1365"/>
      <point x="495" y="1365" type="qcurve" smooth="yes"/>
      <point x="547" y="1365" type="line"/>
      <point x="1092" y="1365" type="line"/>
    </contour>
  </outline>
</glyph>
<glyph name="onequarter" format="1">
  <advance width="1924"/>
  <unicode hex="00BC"/>
  <outline>
    <contour>
      <point x="526" y="1365" type="line"/>
      <point x="526" y="546" type="line"/>
      <point x="424" y="546" type="line"/>
      <point x="424" y="1273" type="line"/>
      <point x="211" y="1053" type="line"/>
      <point x="140" y="1116" type="line"/>
      <point x="385" y="1365" type="line"/>
    </contour>
    <contour>
      <point x="1477" y="1365" type="line"/>
      <point x="551" y="0" type="line"/>
      <point x="447" y="0" type="line"/>
      <point x="1369" y="1365" type="line"/>
    </contour>
    <contour>
      <point x="1735" y="819" type="line"/>
      <point x="1735" y="278" type="line"/>
      <point x="1864" y="278" type="line"/>
      <point x="1864" y="186" type="line"/>
      <point x="1735" y="186" type="line"/>
      <point x="1735" y="0" type="line"/>
      <point x="1633" y="0" type="line"/>
      <point x="1633" y="186" type="line"/>
      <point x="1143" y="186" type="line"/>
      <point x="1143" y="304" type="line"/>
      <point x="1583" y="819" type="line"/>
    </contour>
    <contour>
      <point x="1633" y="278" type="line"/>
      <point x="1633" y="738" type="line"/>
      <point x="1246" y="278" type="line"/>
    </contour>
  </outline>
</glyph>
<glyph name="onehalf" format="1">
  <advance width="1925"/>
  <unicode hex="00BD"/>
  <outline>
    <contour>
      <point x="526" y="1365" type="line"/>
      <point x="526" y="546" type="line"/>
      <point x="424" y="546" type="line"/>
      <point x="424" y="1273" type="line"/>
      <point x="211" y="1053" type="line"/>
      <point x="140" y="1116" type="line"/>
      <point x="385" y="1365" type="line"/>
    </contour>
    <contour>
      <point x="1477" y="1365" type="line"/>
      <point x="551" y="0" type="line"/>
      <point x="447" y="0" type="line"/>
      <point x="1369" y="1365" type="line"/>
    </contour>
    <contour>
      <point x="1812" y="92" type="line"/>
      <point x="1812" y="0" type="line"/>
      <point x="1179" y="0" type="line"/>
      <point x="1179" y="160" type="line" smooth="yes"/>
      <point x="1179" y="291"/>
      <point x="1288" y="372"/>
      <point x="1492" y="394" type="qcurve" smooth="yes"/>
      <point x="1651" y="411"/>
      <point x="1713" y="463"/>
      <point x="1713" y="579" type="qcurve" smooth="yes"/>
      <point x="1713" y="681"/>
      <point x="1641" y="738"/>
      <point x="1510" y="738" type="qcurve" smooth="yes"/>
      <point x="1364" y="738"/>
      <point x="1287" y="690"/>
      <point x="1287" y="599" type="qcurve" smooth="yes"/>
      <point x="1288" y="531" type="line"/>
      <point x="1180" y="531" type="line"/>
      <point x="1181" y="580" type="line" smooth="yes"/>
      <point x="1181" y="726"/>
      <point x="1313" y="827"/>
      <point x="1504" y="827" type="qcurve" smooth="yes"/>
      <point x="1690" y="827"/>
      <point x="1815" y="722"/>
      <point x="1815" y="566" type="qcurve" smooth="yes"/>
      <point x="1815" y="419"/>
      <point x="1699" y="318"/>
      <point x="1510" y="301" type="qcurve" smooth="yes"/>
      <point x="1348" y="286"/>
      <point x="1289" y="235"/>
      <point x="1289" y="112" type="qcurve" smooth="yes"/>
      <point x="1289" y="92" type="line"/>
    </contour>
  </outline>
</glyph>
<glyph name="threequarters" format="1">
  <advance width="1924"/>
  <unicode hex="00BE"/>
  <outline>
    <contour>
      <point x="325" y="918" type="line"/>
      <point x="325" y="1011" type="line"/>
      <point x="365" y="1010" type="line"/>
      <point x="539" y="1010"/>
      <point x="613" y="1048"/>
      <point x="613" y="1137" type="qcurve" smooth="yes"/>
      <point x="613" y="1240"/>
      <point x="549" y="1284"/>
      <point x="398" y="1284" type="qcurve" smooth="yes"/>
      <point x="256" y="1284"/>
      <point x="196" y="1240"/>
      <point x="196" y="1138" type="qcurve" smooth="yes"/>
      <point x="196" y="1104" type="line"/>
      <point x="91" y="1104" type="line"/>
      <point x="91" y="1143" type="line" smooth="yes"/>
      <point x="91" y="1284"/>
      <point x="210" y="1373"/>
      <point x="397" y="1373" type="qcurve" smooth="yes"/>
      <point x="590" y="1373"/>
      <point x="715" y="1290"/>
      <point x="715" y="1162" type="qcurve" smooth="yes"/>
      <point x="715" y="989"/>
      <point x="598" y="966" type="qcurve"/>
      <point x="732" y="944"/>
      <point x="732" y="778" type="qcurve" smooth="yes"/>
      <point x="732" y="634"/>
      <point x="604" y="538"/>
      <point x="413" y="538" type="qcurve" smooth="yes"/>
      <point x="207" y="538"/>
      <point x="77" y="627"/>
      <point x="77" y="768" type="qcurve" smooth="yes"/>
      <point x="76" y="822" type="line"/>
      <point x="184" y="822" type="line"/>
      <point x="184" y="768" type="line" smooth="yes"/>
      <point x="184" y="629"/>
      <point x="309" y="629" type="qcurve" smooth="yes"/>
      <point x="449" y="627" type="line"/>
      <point x="542" y="634" type="line"/>
      <point x="630" y="648"/>
      <point x="630" y="783" type="qcurve" smooth="yes"/>
      <point x="630" y="918"/>
      <point x="451" y="918" type="qcurve" smooth="yes"/>
      <point x="369" y="918" type="line"/>
    </contour>
    <contour>
      <point x="1545" y="1365" type="line"/>
      <point x="618" y="0" type="line"/>
      <point x="515" y="0" type="line"/>
      <point x="1436" y="1365" type="line"/>
    </contour>
    <contour>
      <point x="1734" y="819" type="line"/>
      <point x="1734" y="278" type="line"/>
      <point x="1863" y="278" type="line"/>
      <point x="1863" y="186" type="line"/>
      <point x="1734" y="186" type="line"/>
      <point x="1734" y="0" type="line"/>
      <point x="1632" y="0" type="line"/>
      <point x="1632" y="186" type="line"/>
      <point x="1142" y="186" type="line"/>
      <point x="1142" y="304" type="line"/>
      <point x="1582" y="819" type="line"/>
    </contour>
    <contour>
      <point x="1632" y="278" type="line"/>
      <point x="1632" y="738" type="line"/>
      <point x="1245" y="278" type="line"/>
    </contour>
  </outline>
</glyph>
<glyph name="questiondown" format="1">
  <advance width="1064"/>
  <unicode hex="00BF"/>
  <outline>
    <contour>
      <point x="517" y="772" type="line"/>
      <point x="517" y="956" type="line"/>
      <point x="671" y="956" type="line"/>
      <point x="671" y="772" type="line"/>
    </contour>
    <contour>
      <point x="517" y="562" type="line"/>
      <point x="668" y="562" type="line"/>
      <point x="667" y="532" type="line"/>
      <point x="667" y="395"/>
      <point x="591" y="287"/>
      <point x="458" y="237" type="qcurve" smooth="yes"/>
      <point x="375" y="205" type="line" smooth="yes"/>
      <point x="249" y="157"/>
      <point x="249" y="-37" type="qcurve" smooth="yes"/>
      <point x="249" y="-207"/>
      <point x="342" y="-294"/>
      <point x="525" y="-294" type="qcurve" smooth="yes"/>
      <point x="713" y="-294"/>
      <point x="810" y="-201"/>
      <point x="810" y="-21" type="qcurve" smooth="yes"/>
      <point x="810" y="18" type="line"/>
      <point x="954" y="18" type="line"/>
      <point x="954" y="-27" type="line" smooth="yes"/>
      <point x="954" y="-272"/>
      <point x="781" y="-424"/>
      <point x="502" y="-424" type="qcurve" smooth="yes"/>
      <point x="268" y="-424"/>
      <point x="102" y="-270"/>
      <point x="102" y="-51" type="qcurve" smooth="yes"/>
      <point x="102" y="262"/>
      <point x="296" y="330" type="qcurve" smooth="yes"/>
      <point x="379" y="360" type="line" smooth="yes"/>
      <point x="517" y="408"/>
      <point x="517" y="528" type="qcurve" smooth="yes"/>
    </contour>
  </outline>
</glyph>
<glyph name="AE" format="1">
  <advance width="1902"/>
  <unicode hex="00C6"/>
  <outline>
    <contour>
      <point x="1120" y="1235" type="line"/>
      <point x="1120" y="767" type="line"/>
      <point x="1802" y="767" type="line"/>
      <point x="1802" y="637" type="line"/>
      <point x="1120" y="637" type="line"/>
      <point x="1120" y="130" type="line"/>
      <point x="1834" y="130" type="line"/>
      <point x="1834" y="0" type="line"/>
      <point x="966" y="0" type="line"/>
      <point x="966" y="287" type="line"/>
      <point x="329" y="287" type="line"/>
      <point x="173" y="0" type="line"/>
      <point x="-9" y="0" type="line"/>
      <point x="750" y="1365" type="line"/>
      <point x="1834" y="1365" type="line"/>
      <point x="1834" y="1235" type="line"/>
    </contour>
    <contour>
      <point x="966" y="417" type="line"/>
      <point x="966" y="1235" type="line"/>
      <point x="842" y="1235" type="line"/>
      <point x="401" y="417" type="line"/>
    </contour>
  </outline>
</glyph>
<glyph name="Ccedilla" format="1">
  <advance width="1222"/>
  <unicode hex="00C7"/>
  <outline>
    <contour>
      <point x="1025" y="456" type="line"/>
      <point x="1178" y="456" type="line"/>
      <point x="1178" y="404" type="line" smooth="yes"/>
      <point x="1178" y="125"/>
      <point x="988" y="-14"/>
      <point x="605" y="-14" type="qcurve" smooth="yes"/>
      <point x="262" y="-14"/>
      <point x="76" y="231"/>
      <point x="76" y="685" type="qcurve" smooth="yes"/>
      <point x="76" y="1040"/>
      <point x="118" y="1223"/>
      <point x="217" y="1295" type="qcurve" smooth="yes"/>
      <point x="333" y="1379"/>
      <point x="718" y="1379" type="qcurve" smooth="yes"/>
      <point x="979" y="1379"/>
      <point x="1160" y="1217"/>
      <point x="1160" y="985" type="qcurve"/>
      <point x="1161" y="948" type="line"/>
      <point x="1008" y="948" type="line"/>
      <point x="1007" y="990" type="line" smooth="yes"/>
      <point x="1007" y="1155"/>
      <point x="900" y="1249"/>
      <point x="712" y="1249" type="qcurve" smooth="yes"/>
      <point x="382" y="1249"/>
      <point x="236" y="1139"/>
      <point x="236" y="889" type="qcurve" smooth="yes"/>
      <point x="236" y="314"/>
      <point x="334" y="116"/>
      <point x="620" y="116" type="qcurve" smooth="yes"/>
      <point x="892" y="116"/>
      <point x="1027" y="202"/>
      <point x="1027" y="375" type="qcurve"/>
    </contour>
    <contour>
      <point x="641" y="-100" type="line"/>
      <point x="753" y="-163" type="line"/>
      <point x="593" y="-387" type="line"/>
      <point x="502" y="-338" type="line"/>
    </contour>
  </outline>
</glyph>
<glyph name="multiply" format="1">
  <advance width="1256"/>
  <unicode hex="00D7"/>
  <outline>
    <contour>
      <point x="533" y="683" type="line"/>
      <point x="194" y="1021" type="line"/>
      <point x="289" y="1117" type="line"/>
      <point x="628" y="778" type="line"/>
      <point x="967" y="1117" type="line"/>
      <point x="1062" y="1021" type="line"/>
      <point x="723" y="683" type="line"/>
      <point x="1062" y="344" type="line"/>
      <point x="967" y="249" type="line"/>
      <point x="628" y="587" type="line"/>
      <point x="289" y="249" type="line"/>
      <point x="194" y="344" type="line"/>
    </contour>
  </outline>
</glyph>
<glyph name="Oslash" format="1">
  <advance width="1289"/>
  <unicode hex="00D8"/>
  <outline>
    <contour>
      <point x="20" y="7" type="line"/>
      <point x="20" y="159" type="line"/>
      <point x="96" y="232" type="line"/>
      <point x="62" y="348"/>
      <point x="62" y="701" type="qcurve" smooth="yes"/>
      <point x="62" y="1160"/>
      <point x="258" y="1379"/>
      <point x="670" y="1379" type="qcurve" smooth="yes"/>
      <point x="1041" y="1379"/>
      <point x="1139" y="1242" type="qcurve"/>
      <point x="1268" y="1367" type="line"/>
      <point x="1268" y="1215" type="line"/>
      <point x="1189" y="1138" type="line"/>
      <point x="1226" y="1020"/>
      <point x="1226" y="732" type="qcurve" smooth="yes"/>
      <point x="1226" y="212"/>
      <point x="1051" y="-14"/>
      <point x="648" y="-14" type="qcurve" smooth="yes"/>
      <point x="257" y="-14"/>
      <point x="145" y="129" type="qcurve"/>
    </contour>
    <contour>
      <point x="256" y="235" type="line"/>
      <point x="298" y="152"/>
      <point x="435" y="116"/>
      <point x="708" y="116" type="qcurve" smooth="yes"/>
      <point x="941" y="116"/>
      <point x="1078" y="253"/>
      <point x="1078" y="487" type="qcurve" smooth="yes"/>
      <point x="1079" y="814" type="line"/>
      <point x="1071" y="959" type="line" smooth="yes"/>
      <point x="1069" y="978"/>
      <point x="1062" y="1015" type="qcurve"/>
    </contour>
    <contour>
      <point x="1031" y="1138" type="line"/>
      <point x="991" y="1213"/>
      <point x="853" y="1249"/>
      <point x="605" y="1249" type="qcurve" smooth="yes"/>
      <point x="333" y="1249"/>
      <point x="209" y="1109"/>
      <point x="209" y="801" type="qcurve" smooth="yes"/>
      <point x="209" y="474"/>
      <point x="224" y="357" type="qcurve"/>
    </contour>
  </outline>
</glyph>
<glyph name="germandbls" format="1">
  <advance width="1073"/>
  <unicode hex="00DF"/>
  <outline>
    <contour>
      <point x="130" y="0" type="line"/>
      <point x="130" y="1055" type="line"/>
      <point x="130" y="1095" type="line" smooth="yes"/>
      <point x="130" y="1379"/>
      <point x="503" y="1379" type="qcurve" smooth="yes"/>
      <point x="881" y="1379"/>
      <point x="881" y="1110" type="qcurve" smooth="yes"/>
      <point x="881" y="926"/>
      <point x="703" y="883" type="qcurve"/>
      <point x="703" y="881" type="line"/>
      <point x="854" y="850"/>
      <point x="957" y="679"/>
      <point x="957" y="458" type="qcurve" smooth="yes"/>
      <point x="957" y="195"/>
      <point x="815" y="-14"/>
      <point x="635" y="-14" type="qcurve" smooth="yes"/>
      <point x="365" y="-14"/>
      <point x="365" y="272" type="qcurve"/>
      <point x="366" y="292" type="line"/>
      <point x="503" y="292" type="line"/>
      <point x="504" y="263" type="line"/>
      <point x="504" y="102"/>
      <point x="636" y="102" type="qcurve" smooth="yes"/>
      <point x="744" y="102"/>
      <point x="810" y="238"/>
      <point x="810" y="458" type="qcurve" smooth="yes"/>
      <point x="810" y="675"/>
      <point x="699" y="820"/>
      <point x="535" y="820" type="qcurve" smooth="yes"/>
      <point x="457" y="820" type="line"/>
      <point x="418" y="820" type="line"/>
      <point x="418" y="941" type="line"/>
      <point x="450" y="941" type="line"/>
      <point x="500" y="942" type="line"/>
      <point x="734" y="942"/>
      <point x="734" y="1087" type="qcurve" smooth="yes"/>
      <point x="734" y="1198"/>
      <point x="645" y="1263"/>
      <point x="494" y="1263" type="qcurve" smooth="yes"/>
      <point x="270" y="1263"/>
      <point x="270" y="1068" type="qcurve" smooth="yes"/>
      <point x="270" y="0" type="line"/>
    </contour>
  </outline>
</glyph>
<glyph name="ae" format="1">
  <advance width="1697"/>
  <unicode hex="00E6"/>
  <outline>
    <contour>
      <point x="1599" y="463" type="line"/>
      <point x="918" y="463" type="line"/>
      <point x="918" y="423" type="line" smooth="yes"/>
      <point x="918" y="211"/>
      <point x="1016" y="102"/>
      <point x="1208" y="102" type="qcurve" smooth="yes"/>
      <point x="1360" y="102"/>
      <point x="1456" y="165"/>
      <point x="1456" y="264" type="qcurve" smooth="yes"/>
      <point x="1457" y="289" type="line"/>
      <point x="1599" y="289" type="line"/>
      <point x="1599" y="249" type="line" smooth="yes"/>
      <point x="1599" y="-14"/>
      <point x="1191" y="-14" type="qcurve" smooth="yes"/>
      <point x="900" y="-14"/>
      <point x="839" y="147" type="qcurve"/>
      <point x="836" y="147" type="line"/>
      <point x="774" y="-14"/>
      <point x="489" y="-14" type="qcurve" smooth="yes"/>
      <point x="89" y="-14"/>
      <point x="89" y="279" type="qcurve" smooth="yes"/>
      <point x="89" y="443"/>
      <point x="258" y="570"/>
      <point x="477" y="570" type="qcurve" smooth="yes"/>
      <point x="710" y="570"/>
      <point x="773" y="473" type="qcurve"/>
      <point x="776" y="473" type="line"/>
      <point x="776" y="635" type="line" smooth="yes"/>
      <point x="776" y="773"/>
      <point x="675" y="861"/>
      <point x="517" y="861" type="qcurve" smooth="yes"/>
      <point x="272" y="861"/>
      <point x="272" y="719" type="qcurve" smooth="yes"/>
      <point x="272" y="698" type="line"/>
      <point x="124" y="698" type="line"/>
      <point x="137" y="866"/>
      <point x="274" y="970"/>
      <point x="482" y="970" type="qcurve" smooth="yes"/>
      <point x="800" y="970"/>
      <point x="851" y="847" type="qcurve"/>
      <point x="854" y="847" type="line"/>
      <point x="923" y="970"/>
      <point x="1187" y="970" type="qcurve" smooth="yes"/>
      <point x="1436" y="970"/>
      <point x="1598" y="797"/>
      <point x="1598" y="532" type="qcurve" smooth="yes"/>
    </contour>
    <contour>
      <point x="1457" y="579" type="line"/>
      <point x="1456" y="627" type="line" smooth="yes"/>
      <point x="1456" y="761"/>
      <point x="1349" y="854"/>
      <point x="1195" y="854" type="qcurve" smooth="yes"/>
      <point x="1033" y="854"/>
      <point x="918" y="754"/>
      <point x="918" y="613" type="qcurve"/>
      <point x="917" y="579" type="line"/>
    </contour>
    <contour>
      <point x="474" y="454" type="qcurve" smooth="yes"/>
      <point x="236" y="454"/>
      <point x="236" y="286" type="qcurve" smooth="yes"/>
      <point x="236" y="178"/>
      <point x="346" y="102"/>
      <point x="503" y="102" type="qcurve" smooth="yes"/>
      <point x="777" y="102"/>
      <point x="777" y="282" type="qcurve" smooth="yes"/>
      <point x="777" y="383"/>
      <point x="652" y="454"/>
    </contour>
  </outline>
</glyph>
<glyph name="eth" format="1">
  <advance width="1036"/>
  <unicode hex="00F0"/>
  <outline>
    <contour>
      <point x="531" y="1147" type="line"/>
      <point x="336" y="1039" type="line"/>
      <point x="290" y="1122" type="line"/>
      <point x="477" y="1226" type="line"/>
      <point x="381" y="1365" type="line"/>
      <point x="520" y="1365" type="line"/>
      <point x="577" y="1282" type="line"/>
      <point x="756" y="1380" type="line"/>
      <point x="802" y="1297" type="line"/>
      <point x="632" y="1203" type="line"/>
      <point x="843" y="896" type="line" smooth="yes"/>
      <point x="941" y="753"/>
      <point x="941" y="478" type="qcurve" smooth="yes"/>
      <point x="941" y="170"/>
      <point x="783" y="-14"/>
      <point x="518" y="-14" type="qcurve" smooth="yes"/>
      <point x="254" y="-14"/>
      <point x="96" y="170"/>
      <point x="96" y="478" type="qcurve" smooth="yes"/>
      <point x="96" y="786"/>
      <point x="254" y="970"/>
      <point x="519" y="970" type="qcurve" smooth="yes"/>
      <point x="587" y="970"/>
      <point x="656" y="964" type="qcurve"/>
    </contour>
    <contour>
      <point x="518" y="854" type="qcurve" smooth="yes"/>
      <point x="332" y="854"/>
      <point x="243" y="733"/>
      <point x="243" y="478" type="qcurve" smooth="yes"/>
      <point x="243" y="223"/>
      <point x="332" y="102"/>
      <point x="518" y="102" type="qcurve" smooth="yes"/>
      <point x="705" y="102"/>
      <point x="794" y="223"/>
      <point x="794" y="478" type="qcurve" smooth="yes"/>
      <point x="794" y="733"/>
      <point x="705" y="854"/>
    </contour>
  </outline>
</glyph>
<glyph name="oslash" format="1">
  <advance width="1037"/>
  <unicode hex="00F8"/>
  <outline>
    <contour>
      <point x="59" y="-33" type="line"/>
      <point x="59" y="96" type="line"/>
      <point x="128" y="162" type="line"/>
      <point x="95" y="260"/>
      <point x="95" y="477" type="qcurve" smooth="yes"/>
      <point x="95" y="787"/>
      <point x="254" y="970"/>
      <point x="523" y="970" type="qcurve" smooth="yes"/>
      <point x="786" y="970"/>
      <point x="865" y="870" type="qcurve"/>
      <point x="977" y="978" type="line"/>
      <point x="977" y="850" type="line"/>
      <point x="909" y="784" type="line"/>
      <point x="941" y="689"/>
      <point x="941" y="494" type="qcurve" smooth="yes"/>
      <point x="941" y="182"/>
      <point x="787" y="-14"/>
      <point x="541" y="-14" type="qcurve" smooth="yes"/>
      <point x="262" y="-14"/>
      <point x="176" y="79" type="qcurve"/>
    </contour>
    <contour>
      <point x="278" y="178" type="line"/>
      <point x="321" y="102"/>
      <point x="495" y="102" type="qcurve" smooth="yes"/>
      <point x="702" y="102"/>
      <point x="794" y="222"/>
      <point x="794" y="493" type="qcurve" smooth="yes"/>
      <point x="794" y="578"/>
      <point x="787" y="667" type="qcurve"/>
    </contour>
    <contour>
      <point x="763" y="772" type="line"/>
      <point x="720" y="854"/>
      <point x="539" y="854" type="qcurve" smooth="yes"/>
      <point x="334" y="854"/>
      <point x="242" y="737"/>
      <point x="242" y="476" type="qcurve" smooth="yes"/>
      <point x="242" y="364"/>
      <point x="250" y="279" type="qcurve"/>
    </contour>
  </outline>
</glyph>
<glyph name="oe" format="1">
  <advance width="1714"/>
  <unicode hex="0153"/>
  <outline>
    <contour>
      <point x="1617" y="463" type="line"/>
      <point x="941" y="463" type="line"/>
      <point x="940" y="409" type="line" smooth="yes"/>
      <point x="940" y="216"/>
      <point x="1042" y="102"/>
      <point x="1216" y="102" type="qcurve" smooth="yes"/>
      <point x="1378" y="102"/>
      <point x="1474" y="172"/>
      <point x="1474" y="289" type="qcurve"/>
      <point x="1617" y="289" type="line"/>
      <point x="1617" y="102"/>
      <point x="1448" y="-14"/>
      <point x="1176" y="-14" type="qcurve" smooth="yes"/>
      <point x="933" y="-14"/>
      <point x="865" y="121" type="qcurve"/>
      <point x="862" y="121" type="line"/>
      <point x="804" y="-14"/>
      <point x="512" y="-14" type="qcurve" smooth="yes"/>
      <point x="251" y="-14"/>
      <point x="95" y="175"/>
      <point x="95" y="493" type="qcurve" smooth="yes"/>
      <point x="95" y="782"/>
      <point x="252" y="970"/>
      <point x="494" y="970" type="qcurve" smooth="yes"/>
      <point x="820" y="970"/>
      <point x="862" y="831" type="qcurve"/>
      <point x="865" y="831" type="line"/>
      <point x="926" y="970"/>
      <point x="1205" y="970" type="qcurve" smooth="yes"/>
      <point x="1452" y="970"/>
      <point x="1617" y="797"/>
      <point x="1617" y="539" type="qcurve" smooth="yes"/>
    </contour>
    <contour>
      <point x="1474" y="579" type="line"/>
      <point x="1474" y="748"/>
      <point x="1377" y="854"/>
      <point x="1222" y="854" type="qcurve" smooth="yes"/>
      <point x="1046" y="854"/>
      <point x="937" y="749"/>
      <point x="937" y="579" type="qcurve"/>
    </contour>
    <contour>
      <point x="518" y="854" type="qcurve" smooth="yes"/>
      <point x="331" y="854"/>
      <point x="242" y="733"/>
      <point x="242" y="478" type="qcurve" smooth="yes"/>
      <point x="242" y="223"/>
      <point x="331" y="102"/>
      <point x="518" y="102" type="qcurve" smooth="yes"/>
      <point x="705" y="102"/>
      <point x="794" y="223"/>
      <point x="794" y="478" type="qcurve" smooth="yes"/>
      <point x="794" y="732"/>
      <point x="705" y="854"/>
    </contour>
  </outline>
</glyph>
<glyph name="florin" format="1">
  <advance width="1256"/>
  <unicode hex="0192"/>
  <outline>
    <contour>
      <point x="752" y="908" type="line"/>
      <point x="593" y="8" type="line" smooth="yes"/>
      <point x="563" y="-162"/>
      <point x="429" y="-276"/>
      <point x="262" y="-276" type="qcurve" smooth="yes"/>
      <point x="209" y="-276"/>
      <point x="146" y="-269" type="qcurve"/>
      <point x="167" y="-151" type="line"/>
      <point x="234" y="-160"/>
      <point x="272" y="-160" type="qcurve" smooth="yes"/>
      <point x="418" y="-160"/>
      <point x="446" y="-4" type="qcurve" smooth="yes"/>
      <point x="607" y="908" type="line"/>
      <point x="419" y="908" type="line"/>
      <point x="440" y="1024" type="line"/>
      <point x="627" y="1024" type="line"/>
      <point x="664" y="1234" type="line" smooth="yes"/>
      <point x="694" y="1404"/>
      <point x="830" y="1518"/>
      <point x="1004" y="1518" type="qcurve" smooth="yes"/>
      <point x="1037" y="1518"/>
      <point x="1111" y="1514" type="qcurve"/>
      <point x="1090" y="1396" type="line"/>
      <point x="1027" y="1402"/>
      <point x="985" y="1402" type="qcurve" smooth="yes"/>
      <point x="839" y="1402"/>
      <point x="811" y="1247" type="qcurve" smooth="yes"/>
      <point x="772" y="1024" type="line"/>
      <point x="1025" y="1024" type="line"/>
      <point x="1004" y="908" type="line"/>
    </contour>
  </outline>
</glyph>
<glyph name="circumflex" format="1">
  <advance width="1024"/>
  <unicode hex="02C6"/>
  <outline>
    <contour>
      <point x="512" y="1353" type="line"/>
      <point x="774" y="1144" type="line"/>
      <point x="718" y="1073" type="line"/>
      <point x="512" y="1225" type="line"/>
      <point x="306" y="1073" type="line"/>
      <point x="249" y="1144" type="line"/>
    </contour>
  </outline>
</glyph>
<glyph name="caron" format="1">
  <advance width="1024"/>
  <unicode hex="02C7"/>
  <outline>
    <contour>
      <point x="512" y="1073" type="line"/>
      <point x="249" y="1282" type="line"/>
      <point x="306" y="1353" type="line"/>
      <point x="512" y="1201" type="line"/>
      <point x="718" y="1353" type="line"/>
      <point x="774" y="1282" type="line"/>
    </contour>
  </outline>
</glyph>
<glyph name="breve" format="1">
  <advance width="1024"/>
  <unicode hex="02D8"/>
  <outline>
    <contour>
      <point x="247" y="1328" type="qcurve"/>
      <point x="344" y="1328" type="line"/>
      <point x="375" y="1187"/>
      <point x="512" y="1187" type="qcurve" smooth="yes"/>
      <point x="650" y="1187"/>
      <point x="680" y="1328" type="qcurve"/>
      <point x="778" y="1328" type="line"/>
      <point x="738" y="1078"/>
      <point x="512" y="1078" type="qcurve" smooth="yes"/>
      <point x="287" y="1078"/>
    </contour>
  </outline>
</glyph>
<glyph name="dotaccent" format="1">
  <advance width="1017"/>
  <unicode hex="02D9"/>
  <outline>
    <contour>
      <point x="586" y="1256" type="line"/>
      <point x="586" y="1126" type="line"/>
      <point x="432" y="1126" type="line"/>
      <point x="432" y="1256" type="line"/>
    </contour>
  </outline>
</glyph>
<glyph name="ring" format="1">
  <advance width="1024"/>
  <unicode hex="02DA"/>
  <outline>
    <contour>
      <point x="512" y="1365" type="qcurve" smooth="yes"/>
      <point x="669" y="1365"/>
      <point x="669" y="1208" type="qcurve" smooth="yes"/>
      <point x="669" y="1051"/>
      <point x="512" y="1051" type="qcurve" smooth="yes"/>
      <point x="355" y="1051"/>
      <point x="355" y="1208" type="qcurve" smooth="yes"/>
      <point x="355" y="1365"/>
    </contour>
    <contour>
      <point x="512" y="1293" type="qcurve" smooth="yes"/>
      <point x="423" y="1293"/>
      <point x="423" y="1208" type="qcurve" smooth="yes"/>
      <point x="423" y="1123"/>
      <point x="512" y="1123" type="qcurve" smooth="yes"/>
      <point x="601" y="1123"/>
      <point x="601" y="1208" type="qcurve" smooth="yes"/>
      <point x="601" y="1293"/>
    </contour>
  </outline>
</glyph>
<glyph name="tilde" format="1">
  <advance width="1024"/>
  <unicode hex="02DC"/>
  <outline>
    <contour>
      <point x="708" y="1276" type="qcurve"/>
      <point x="788" y="1226" type="line"/>
      <point x="717" y="1100"/>
      <point x="629" y="1100" type="qcurve" smooth="yes"/>
      <point x="583" y="1100"/>
      <point x="503" y="1136" type="qcurve" smooth="yes"/>
      <point x="425" y="1170"/>
      <point x="394" y="1170" type="qcurve" smooth="yes"/>
      <point x="352" y="1170"/>
      <point x="315" y="1104" type="qcurve"/>
      <point x="235" y="1155" type="line"/>
      <point x="308" y="1279"/>
      <point x="398" y="1279" type="qcurve" smooth="yes"/>
      <point x="439" y="1279"/>
      <point x="522" y="1245" type="qcurve" smooth="yes"/>
      <point x="609" y="1209"/>
      <point x="632" y="1209" type="qcurve" smooth="yes"/>
      <point x="671" y="1209"/>
    </contour>
  </outline>
</glyph>
<glyph name="hungarumlaut" format="1">
  <advance width="1024"/>
  <unicode hex="02DD"/>
  <outline>
    <contour>
      <point x="524" y="1349" type="line"/>
      <point x="600" y="1265" type="line"/>
      <point x="345" y="1069" type="line"/>
      <point x="293" y="1133" type="line"/>
    </contour>
    <contour>
      <point x="792" y="1349" type="line"/>
      <point x="868" y="1265" type="line"/>
      <point x="613" y="1069" type="line"/>
      <point x="561" y="1133" type="line"/>
    </contour>
  </outline>
</glyph>
<glyph name="pi" format="1">
  <advance width="1064"/>
  <unicode hex="03C0"/>
  <outline>
    <contour>
      <point x="152" y="0" type="line"/>
      <point x="152" y="851" type="line"/>
      <point x="0" y="851" type="line"/>
      <point x="0" y="981" type="line"/>
      <point x="1064" y="981" type="line"/>
      <point x="1064" y="851" type="line"/>
      <point x="914" y="851" type="line"/>
      <point x="914" y="0" type="line"/>
      <point x="774" y="0" type="line"/>
      <point x="774" y="851" type="line"/>
      <point x="292" y="851" type="line"/>
      <point x="292" y="0" type="line"/>
    </contour>
  </outline>
</glyph>
<glyph name="endash" format="1">
  <advance width="1256"/>
  <unicode hex="2013"/>
  <outline>
    <contour>
      <point x="227" y="562" type="line"/>
      <point x="1030" y="562" type="line"/>
      <point x="1030" y="432" type="line"/>
      <point x="227" y="432" type="line"/>
    </contour>
  </outline>
</glyph>
<glyph name="emdash" format="1">
  <advance width="1417"/>
  <unicode hex="2014"/>
  <outline>
    <contour>
      <point x="9" y="562" type="line"/>
      <point x="1417" y="562" type="line"/>
      <point x="1417" y="432" type="line"/>
      <point x="0" y="432" type="line"/>
    </contour>
  </outline>
</glyph>
<glyph name="quoteleft" format="1">
  <advance width="366"/>
  <unicode hex="2018"/>
  <outline>
    <contour>
      <point x="86" y="1008" type="line"/>
      <point x="86" y="1207" type="line" smooth="yes"/>
      <point x="86" y="1393"/>
      <point x="222" y="1393" type="qcurve" smooth="yes"/>
      <point x="237" y="1393"/>
      <point x="268" y="1391" type="qcurve"/>
      <point x="268" y="1314" type="line"/>
      <point x="174" y="1314"/>
      <point x="174" y="1227" type="qcurve" smooth="yes"/>
      <point x="175" y="1192" type="line"/>
      <point x="240" y="1192" type="line"/>
      <point x="240" y="1008" type="line"/>
    </contour>
  </outline>
</glyph>
<glyph name="quotedblbase" format="1">
  <advance width="653"/>
  <unicode hex="201E"/>
  <outline>
    <contour>
      <point x="272" y="184" type="line"/>
      <point x="272" y="-14" type="line" smooth="yes"/>
      <point x="272" y="-201"/>
      <point x="136" y="-201" type="qcurve" smooth="yes"/>
      <point x="123" y="-201"/>
      <point x="98" y="-199" type="qcurve"/>
      <point x="98" y="-123" type="line"/>
      <point x="184" y="-118"/>
      <point x="184" y="-35" type="qcurve" smooth="yes"/>
      <point x="183" y="0" type="line"/>
      <point x="118" y="0" type="line"/>
      <point x="118" y="184" type="line"/>
    </contour>
    <contour>
      <point x="567" y="184" type="line"/>
      <point x="567" y="-14" type="line" smooth="yes"/>
      <point x="567" y="-201"/>
      <point x="431" y="-201" type="qcurve" smooth="yes"/>
      <point x="414" y="-201"/>
      <point x="385" y="-199" type="qcurve"/>
      <point x="385" y="-123" type="line"/>
      <point x="479" y="-123"/>
      <point x="479" y="-35" type="qcurve" smooth="yes"/>
      <point x="478" y="0" type="line"/>
      <point x="413" y="0" type="line"/>
      <point x="413" y="184" type="line"/>
    </contour>
  </outline>
</glyph>
<glyph name="ellipsis" format="1">
  <advance width="1223"/>
  <unicode hex="2026"/>
  <outline>
    <contour>
      <point x="277" y="184" type="line"/>
      <point x="277" y="0" type="line"/>
      <point x="123" y="0" type="line"/>
      <point x="123" y="184" type="line"/>
    </contour>
    <contour>
      <point x="685" y="184" type="line"/>
      <point x="685" y="0" type="line"/>
      <point x="531" y="0" type="line"/>
      <point x="531" y="184" type="line"/>
    </contour>
    <contour>
      <point x="1100" y="184" type="line"/>
      <point x="1100" y="0" type="line"/>
      <point x="946" y="0" type="line"/>
      <point x="946" y="184" type="line"/>
    </contour>
  </outline>
</glyph>
<glyph name="perthousand" format="1">
  <advance width="2337"/>
  <unicode hex="2030"/>
  <outline>
    <contour>
      <point x="333" y="1370" type="qcurve" smooth="yes"/>
      <point x="538" y="1370"/>
      <point x="630" y="1263"/>
      <point x="630" y="1028" type="qcurve" smooth="yes"/>
      <point x="630" y="793"/>
      <point x="538" y="677"/>
      <point x="350" y="677" type="qcurve" smooth="yes"/>
      <point x="139" y="677"/>
      <point x="34" y="795"/>
      <point x="34" y="1032" type="qcurve" smooth="yes"/>
      <point x="34" y="1249"/>
      <point x="141" y="1370"/>
    </contour>
    <contour>
      <point x="331" y="1298" type="qcurve" smooth="yes"/>
      <point x="183" y="1298"/>
      <point x="119" y="1220"/>
      <point x="119" y="1041" type="qcurve" smooth="yes"/>
      <point x="119" y="823"/>
      <point x="186" y="749"/>
      <point x="386" y="749" type="qcurve" smooth="yes"/>
      <point x="545" y="749"/>
      <point x="545" y="908" type="qcurve" smooth="yes"/>
      <point x="545" y="1026" type="line"/>
      <point x="545" y="1137" type="line" smooth="yes"/>
      <point x="545" y="1246"/>
      <point x="476" y="1298"/>
    </contour>
    <contour>
      <point x="1315" y="1365" type="line"/>
      <point x="388" y="0" type="line"/>
      <point x="295" y="0" type="line"/>
      <point x="1216" y="1365" type="line"/>
    </contour>
    <contour>
      <point x="1274" y="688" type="qcurve" smooth="yes"/>
      <point x="1479" y="688"/>
      <point x="1571" y="581"/>
      <point x="1571" y="346" type="qcurve" smooth="yes"/>
      <point x="1571" y="110"/>
      <point x="1479" y="-5"/>
      <point x="1291" y="-5" type="qcurve" smooth="yes"/>
      <point x="1080" y="-5"/>
      <point x="975" y="113"/>
      <point x="975" y="350" type="qcurve" smooth="yes"/>
      <point x="975" y="567"/>
      <point x="1082" y="688"/>
    </contour>
    <contour>
      <point x="1272" y="616" type="qcurve" smooth="yes"/>
      <point x="1124" y="616"/>
      <point x="1060" y="538"/>
      <point x="1060" y="359" type="qcurve" smooth="yes"/>
      <point x="1060" y="141"/>
      <point x="1127" y="67"/>
      <point x="1327" y="67" type="qcurve" smooth="yes"/>
      <point x="1486" y="67"/>
      <point x="1486" y="226" type="qcurve" smooth="yes"/>
      <point x="1486" y="344" type="line"/>
      <point x="1486" y="455" type="line" smooth="yes"/>
      <point x="1486" y="564"/>
      <point x="1416" y="616"/>
    </contour>
    <contour>
      <point x="2002" y="688" type="qcurve" smooth="yes"/>
      <point x="2206" y="688"/>
      <point x="2299" y="581"/>
      <point x="2299" y="346" type="qcurve" smooth="yes"/>
      <point x="2299" y="110"/>
      <point x="2207" y="-5"/>
      <point x="2018" y="-5" type="qcurve" smooth="yes"/>
      <point x="1807" y="-5"/>
      <point x="1702" y="113"/>
      <point x="1702" y="350" type="qcurve" smooth="yes"/>
      <point x="1702" y="567"/>
      <point x="1809" y="688"/>
    </contour>
    <contour>
      <point x="1999" y="616" type="qcurve" smooth="yes"/>
      <point x="1852" y="616"/>
      <point x="1787" y="538"/>
      <point x="1787" y="359" type="qcurve" smooth="yes"/>
      <point x="1787" y="141"/>
      <point x="1855" y="67"/>
      <point x="2054" y="67" type="qcurve" smooth="yes"/>
      <point x="2214" y="67"/>
      <point x="2214" y="226" type="qcurve" smooth="yes"/>
      <point x="2214" y="344" type="line"/>
      <point x="2214" y="455" type="line" smooth="yes"/>
      <point x="2214" y="564"/>
      <point x="2144" y="616"/>
    </contour>
  </outline>
</glyph>
<glyph name="guilsinglleft" format="1">
  <advance width="578"/>
  <unicode hex="2039"/>
  <outline>
    <contour>
      <point x="348" y="1047" type="line"/>
      <point x="453" y="983" type="line"/>
      <point x="238" y="525" type="line"/>
      <point x="476" y="66" type="line"/>
      <point x="377" y="0" type="line"/>
      <point x="102" y="525" type="line"/>
    </contour>
  </outline>
</glyph>
<glyph name="partialdiff" format="1">
  <advance width="895"/>
  <unicode hex="2202"/>
  <outline>
    <contour>
      <point x="113" y="1248" type="qcurve"/>
      <point x="132" y="1373" type="line"/>
      <point x="495" y="1322"/>
      <point x="895" y="863"/>
      <point x="895" y="498" type="qcurve" smooth="yes"/>
      <point x="895" y="265"/>
      <point x="649" y="-23"/>
      <point x="449" y="-23" type="qcurve" smooth="yes"/>
      <point x="265" y="-23"/>
      <point x="0" y="249"/>
      <point x="0" y="439" type="qcurve" smooth="yes"/>
      <point x="0" y="625"/>
      <point x="247" y="891"/>
      <point x="421" y="891" type="qcurve" smooth="yes"/>
      <point x="610" y="891"/>
      <point x="733" y="735" type="qcurve"/>
      <point x="724" y="757"/>
      <point x="720" y="768" type="qcurve" smooth="yes"/>
      <point x="553" y="1186"/>
    </contour>
    <contour>
      <point x="457" y="782" type="qcurve" smooth="yes"/>
      <point x="327" y="782"/>
      <point x="147" y="578"/>
      <point x="147" y="431" type="qcurve" smooth="yes"/>
      <point x="147" y="289"/>
      <point x="325" y="86"/>
      <point x="449" y="86" type="qcurve" smooth="yes"/>
      <point x="577" y="86"/>
      <point x="748" y="293"/>
      <point x="748" y="448" type="qcurve" smooth="yes"/>
      <point x="748" y="593"/>
      <point x="583" y="782"/>
    </contour>
  </outline>
</glyph>
<glyph name="Delta" format="1">
  <advance width="1249"/>
  <unicode hex="2206"/>
  <outline>
    <contour>
      <point x="0" y="0" type="line"/>
      <point x="548" y="1365" type="line"/>
      <point x="698" y="1365" type="line"/>
      <point x="1249" y="0" type="line"/>
    </contour>
    <contour>
      <point x="201" y="130" type="line"/>
      <point x="1046" y="130" type="line"/>
      <point x="623" y="1194" type="line"/>
    </contour>
  </outline>
</glyph>
<glyph name="radical" format="1">
  <advance width="1365"/>
  <unicode hex="221A"/>
  <outline>
    <contour>
      <point x="1365" y="1697" type="line"/>
      <point x="1365" y="1567" type="line"/>
      <point x="961" y="1567" type="line"/>
      <point x="511" y="0" type="line"/>
      <point x="340" y="0" type="line"/>
      <point x="168" y="617" type="line"/>
      <point x="0" y="617" type="line"/>
      <point x="0" y="747" type="line"/>
      <point x="282" y="747" type="line"/>
      <point x="361" y="477" type="line" smooth="yes"/>
      <point x="370" y="447"/>
      <point x="391" y="346" type="qcurve" smooth="yes"/>
      <point x="415" y="227" type="line"/>
      <point x="422" y="195" type="line"/>
      <point x="432" y="195" type="line"/>
      <point x="439" y="229"/>
      <point x="441" y="237" type="qcurve" smooth="yes"/>
      <point x="473" y="372" type="line"/>
      <point x="525" y="588" type="line"/>
      <point x="616" y="904" type="line"/>
      <point x="841" y="1697" type="line"/>
    </contour>
  </outline>
</glyph>
<glyph name="infinity" format="1">
  <advance width="1290"/>
  <unicode hex="221E"/>
  <outline>
    <contour>
      <point x="648" y="603" type="qcurve"/>
      <point x="495" y="385"/>
      <point x="310" y="385" type="qcurve" smooth="yes"/>
      <point x="0" y="385"/>
      <point x="0" y="698" type="qcurve" smooth="yes"/>
      <point x="0" y="835"/>
      <point x="174" y="1010"/>
      <point x="311" y="1010" type="qcurve" smooth="yes"/>
      <point x="495" y="1010"/>
      <point x="642" y="792" type="qcurve"/>
      <point x="790" y="1010"/>
      <point x="982" y="1010" type="qcurve" smooth="yes"/>
      <point x="1290" y="1010"/>
      <point x="1290" y="696" type="qcurve" smooth="yes"/>
      <point x="1290" y="384"/>
      <point x="984" y="384" type="qcurve" smooth="yes"/>
      <point x="794" y="384"/>
    </contour>
    <contour>
      <point x="715" y="697" type="qcurve"/>
      <point x="841" y="500"/>
      <point x="972" y="500" type="qcurve" smooth="yes"/>
      <point x="1157" y="500"/>
      <point x="1157" y="700" type="qcurve" smooth="yes"/>
      <point x="1157" y="894"/>
      <point x="970" y="894" type="qcurve" smooth="yes"/>
      <point x="843" y="894"/>
    </contour>
    <contour>
      <point x="574" y="696" type="qcurve"/>
      <point x="451" y="894"/>
      <point x="318" y="894" type="qcurve" smooth="yes"/>
      <point x="133" y="894"/>
      <point x="133" y="695" type="qcurve" smooth="yes"/>
      <point x="133" y="501"/>
      <point x="320" y="501" type="qcurve" smooth="yes"/>
      <point x="447" y="501"/>
    </contour>
  </outline>
</glyph>
<glyph name="integral" format="1">
  <advance width="618"/>
  <unicode hex="222B"/>
  <outline>
    <contour>
      <point x="0" y="-490" type="qcurve"/>
      <point x="32" y="-366" type="line"/>
      <point x="83" y="-380"/>
      <point x="122" y="-380" type="qcurve" smooth="yes"/>
      <point x="197" y="-380"/>
      <point x="239" y="-295"/>
      <point x="239" y="-141" type="qcurve" smooth="yes"/>
      <point x="239" y="1140" type="line" smooth="yes"/>
      <point x="239" y="1380"/>
      <point x="335" y="1536"/>
      <point x="484" y="1536" type="qcurve" smooth="yes"/>
      <point x="540" y="1536"/>
      <point x="618" y="1513" type="qcurve"/>
      <point x="586" y="1389" type="line"/>
      <point x="535" y="1406"/>
      <point x="497" y="1406" type="qcurve" smooth="yes"/>
      <point x="380" y="1406"/>
      <point x="380" y="1204" type="qcurve" smooth="yes"/>
      <point x="379" y="1104" type="line"/>
      <point x="379" y="-116" type="line" smooth="yes"/>
      <point x="379" y="-357"/>
      <point x="276" y="-510"/>
      <point x="114" y="-510" type="qcurve" smooth="yes"/>
      <point x="53" y="-510"/>
    </contour>
  </outline>
</glyph>
<glyph name="approxequal" format="1">
  <advance width="984"/>
  <unicode hex="2248"/>
  <outline>
    <contour>
      <point x="84" y="712" type="qcurve"/>
      <point x="0" y="766" type="line"/>
      <point x="109" y="998"/>
      <point x="279" y="998" type="qcurve" smooth="yes"/>
      <point x="356" y="998"/>
      <point x="509" y="923" type="qcurve" smooth="yes"/>
      <point x="650" y="854"/>
      <point x="711" y="854" type="qcurve" smooth="yes"/>
      <point x="813" y="854"/>
      <point x="898" y="1002" type="qcurve"/>
      <point x="984" y="952" type="line"/>
      <point x="869" y="724"/>
      <point x="698" y="724" type="qcurve" smooth="yes"/>
      <point x="622" y="724"/>
      <point x="524" y="771" type="qcurve" smooth="yes"/>
      <point x="406" y="827" type="line" smooth="yes"/>
      <point x="321" y="868"/>
      <point x="267" y="868" type="qcurve" smooth="yes"/>
      <point x="166" y="868"/>
    </contour>
    <contour>
      <point x="84" y="376" type="qcurve"/>
      <point x="0" y="430" type="line"/>
      <point x="108" y="662"/>
      <point x="279" y="662" type="qcurve" smooth="yes"/>
      <point x="356" y="662"/>
      <point x="509" y="587" type="qcurve" smooth="yes"/>
      <point x="650" y="518"/>
      <point x="711" y="518" type="qcurve" smooth="yes"/>
      <point x="812" y="518"/>
      <point x="898" y="666" type="qcurve"/>
      <point x="984" y="615" type="line"/>
      <point x="870" y="388"/>
      <point x="698" y="388" type="qcurve" smooth="yes"/>
      <point x="623" y="388"/>
      <point x="524" y="435" type="qcurve" smooth="yes"/>
      <point x="406" y="491" type="line" smooth="yes"/>
      <point x="321" y="532"/>
      <point x="268" y="532" type="qcurve" smooth="yes"/>
      <point x="165" y="532"/>
    </contour>
  </outline>
</glyph>
<glyph name="lessequal" format="1">
  <advance width="887"/>
  <unicode hex="2264"/>
  <outline>
    <contour>
      <point x="887" y="1239" type="line"/>
      <point x="887" y="1105" type="line"/>
      <point x="150" y="779" type="line"/>
      <point x="887" y="454" type="line"/>
      <point x="887" y="320" type="line"/>
      <point x="0" y="716" type="line"/>
      <point x="0" y="839" type="line"/>
    </contour>
    <contour>
      <point x="887" y="259" type="line"/>
      <point x="887" y="129" type="line"/>
      <point x="0" y="129" type="line"/>
      <point x="0" y="259" type="line"/>
    </contour>
  </outline>
</glyph>
<glyph name="greaterequal" format="1">
  <advance width="887"/>
  <unicode hex="2265"/>
  <outline>
    <contour>
      <point x="0" y="320" type="line"/>
      <point x="0" y="454" type="line"/>
      <point x="737" y="780" type="line"/>
      <point x="0" y="1105" type="line"/>
      <point x="0" y="1239" type="line"/>
      <point x="887" y="838" type="line"/>
      <point x="887" y="716" type="line"/>
    </contour>
    <contour>
      <point x="0" y="129" type="line"/>
      <point x="0" y="259" type="line"/>
      <point x="887" y="259" type="line"/>
      <point x="887" y="129" type="line"/>
    </contour>
  </outline>
</glyph>
<glyph name="lozenge" format="1">
  <advance width="1063"/>
  <unicode hex="25CA"/>
  <outline>
    <contour>
      <point x="532" y="1419" type="line"/>
      <point x="1063" y="683" type="line"/>
      <point x="532" y="-53" type="line"/>
      <point x="0" y="683" type="line"/>
    </contour>
    <contour>
      <point x="532" y="1147" type="line"/>
      <point x="195" y="683" type="line"/>
      <point x="532" y="220" type="line"/>
      <point x="869" y="683" type="line"/>
    </contour>
  </outline>
</glyph>
<glyph name="fi" format="1">
  <advance width="935"/>
  <unicode hex="F001"/>
  <outline>
    <contour>
      <point x="160" y="0" type="line"/>
      <point x="160" y="840" type="line"/>
      <point x="14" y="840" type="line"/>
      <point x="14" y="956" type="line"/>
      <point x="160" y="956" type="line"/>
      <point x="160" y="1098" type="line" smooth="yes"/>
      <point x="160" y="1379"/>
      <point x="449" y="1379" type="qcurve" smooth="yes"/>
      <point x="492" y="1379"/>
      <point x="550" y="1372" type="qcurve"/>
      <point x="550" y="1256" type="line"/>
      <point x="482" y="1263"/>
      <point x="451" y="1263" type="qcurve" smooth="yes"/>
      <point x="300" y="1263"/>
      <point x="300" y="1111" type="qcurve" smooth="yes"/>
      <point x="300" y="956" type="line"/>
      <point x="550" y="956" type="line"/>
      <point x="550" y="840" type="line"/>
      <point x="300" y="840" type="line"/>
      <point x="300" y="0" type="line"/>
    </contour>
    <contour>
      <point x="813" y="1365" type="line"/>
      <point x="813" y="1208" type="line"/>
      <point x="673" y="1208" type="line"/>
      <point x="673" y="1365" type="line"/>
    </contour>
    <contour>
      <point x="813" y="956" type="line"/>
      <point x="813" y="0" type="line"/>
      <point x="673" y="0" type="line"/>
      <point x="673" y="956" type="line"/>
    </contour>
  </outline>
</glyph>
<glyph name=".notdef" format="1">
  <advance width="682"/>
  <outline>
    <contour>
      <point x="68" y="0" type="line"/>
      <point x="68" y="1365" type="line"/>
      <point x="614" y="1365" type="line"/>
      <point x="614" y="0" type="line"/>
    </contour>
    <contour>
      <point x="546" y="68" type="line"/>
      <point x="546" y="1297" type="line"/>
      <point x="136" y="1297" type="line"/>
      <point x="136" y="68" type="line"/>
    </contour>
  </outline>
</glyph>
<glyph name="glyph237" format="1">
  <advance width="1246"/>
  <outline>
    <contour>
      <point x="515" y="1660" type="line"/>
      <point x="515" y="1530" type="line"/>
      <point x="361" y="1530" type="line"/>
      <point x="361" y="1660" type="line"/>
    </contour>
    <contour>
      <point x="885" y="1660" type="line"/>
      <point x="885" y="1530" type="line"/>
      <point x="731" y="1530" type="line"/>
      <point x="731" y="1660" type="line"/>
    </contour>
  </outline>
</glyph>
<glyph name="glyph238" format="1">
  <advance width="1246"/>
  <outline>
    <contour>
      <point x="823" y="1741" type="line"/>
      <point x="884" y="1630" type="line"/>
      <point x="576" y="1476" type="line"/>
      <point x="526" y="1555" type="line"/>
    </contour>
  </outline>
</glyph>
<glyph name="glyph239" format="1">
  <advance width="1246"/>
  <outline>
    <contour>
      <point x="422" y="1741" type="line"/>
      <point x="720" y="1555" type="line"/>
      <point x="670" y="1476" type="line"/>
      <point x="362" y="1630" type="line"/>
    </contour>
  </outline>
</glyph>
<glyph name="glyph243" format="1">
  <advance width="1020"/>
  <outline>
    <contour>
      <point x="416" y="1660" type="line"/>
      <point x="416" y="1530" type="line"/>
      <point x="262" y="1530" type="line"/>
      <point x="262" y="1660" type="line"/>
    </contour>
    <contour>
      <point x="786" y="1660" type="line"/>
      <point x="786" y="1530" type="line"/>
      <point x="632" y="1530" type="line"/>
      <point x="632" y="1660" type="line"/>
    </contour>
  </outline>
</glyph>
<glyph name="glyph244" format="1">
  <advance width="1020"/>
  <outline>
    <contour>
      <point x="697" y="1741" type="line"/>
      <point x="757" y="1630" type="line"/>
      <point x="449" y="1476" type="line"/>
      <point x="399" y="1555" type="line"/>
    </contour>
  </outline>
</glyph>
<glyph name="glyph247" format="1">
  <advance width="416"/>
  <outline>
    <contour>
      <point x="175" y="1660" type="line"/>
      <point x="175" y="1530" type="line"/>
      <point x="21" y="1530" type="line"/>
      <point x="21" y="1660" type="line"/>
    </contour>
    <contour>
      <point x="395" y="1660" type="line"/>
      <point x="395" y="1530" type="line"/>
      <point x="241" y="1530" type="line"/>
      <point x="241" y="1660" type="line"/>
    </contour>
  </outline>
</glyph>
<glyph name="glyph248" format="1">
  <advance width="416"/>
  <outline>
    <contour>
      <point x="408" y="1741" type="line"/>
      <point x="469" y="1630" type="line"/>
      <point x="161" y="1476" type="line"/>
      <point x="111" y="1555" type="line"/>
    </contour>
  </outline>
</glyph>
<glyph name="glyph250" format="1">
  <advance width="416"/>
  <outline>
    <contour>
      <point x="212" y="1735" type="line"/>
      <point x="498" y="1553" type="line"/>
      <point x="455" y="1476" type="line"/>
      <point x="212" y="1600" type="line"/>
      <point x="-44" y="1476" type="line"/>
      <point x="-82" y="1553" type="line"/>
    </contour>
  </outline>
</glyph>
<glyph name="glyph253" format="1">
  <advance width="1256"/>
  <outline>
    <contour>
      <point x="801" y="1741" type="line"/>
      <point x="861" y="1630" type="line"/>
      <point x="553" y="1476" type="line"/>
      <point x="504" y="1555" type="line"/>
    </contour>
  </outline>
</glyph>
<glyph name="glyph255" format="1">
  <advance width="1256"/>
  <outline>
    <contour>
      <point x="631" y="1735" type="line"/>
      <point x="945" y="1553" type="line"/>
      <point x="902" y="1476" type="line"/>
      <point x="631" y="1600" type="line"/>
      <point x="349" y="1476" type="line"/>
      <point x="311" y="1553" type="line"/>
    </contour>
  </outline>
</glyph>
<glyph name="glyph256" format="1">
  <advance width="1256"/>
  <outline>
    <contour>
      <point x="880" y="1698" type="qcurve"/>
      <point x="958" y="1647" type="line"/>
      <point x="874" y="1511"/>
      <point x="770" y="1511" type="qcurve" smooth="yes"/>
      <point x="726" y="1511"/>
      <point x="632" y="1552" type="qcurve" smooth="yes"/>
      <point x="548" y="1588"/>
      <point x="508" y="1588" type="qcurve" smooth="yes"/>
      <point x="464" y="1588"/>
      <point x="423" y="1515" type="qcurve"/>
      <point x="340" y="1561" type="line"/>
      <point x="415" y="1697"/>
      <point x="514" y="1697" type="qcurve" smooth="yes"/>
      <point x="555" y="1697"/>
      <point x="649" y="1658" type="qcurve" smooth="yes"/>
      <point x="741" y="1620"/>
      <point x="773" y="1620" type="qcurve" smooth="yes"/>
      <point x="829" y="1620"/>
    </contour>
  </outline>
</glyph>
<glyph name="glyph257" format="1">
  <advance width="1146"/>
  <outline>
    <contour>
      <point x="577" y="1476" type="line"/>
      <point x="256" y="1658" type="line"/>
      <point x="294" y="1735" type="line"/>
      <point x="577" y="1611" type="line"/>
      <point x="848" y="1735" type="line"/>
      <point x="891" y="1658" type="line"/>
    </contour>
  </outline>
</glyph>
<glyph name="glyph262" format="1">
  <advance width="1342"/>
  <outline>
    <contour>
      <point x="675" y="1735" type="line"/>
      <point x="988" y="1553" type="line"/>
      <point x="945" y="1476" type="line"/>
      <point x="675" y="1600" type="line"/>
      <point x="392" y="1476" type="line"/>
      <point x="354" y="1553" type="line"/>
    </contour>
  </outline>
</glyph>
<glyph name="glyph265" format="1">
  <advance width="1151"/>
  <outline>
    <contour>
      <point x="468" y="1660" type="line"/>
      <point x="468" y="1530" type="line"/>
      <point x="314" y="1530" type="line"/>
      <point x="314" y="1660" type="line"/>
    </contour>
    <contour>
      <point x="838" y="1660" type="line"/>
      <point x="838" y="1530" type="line"/>
      <point x="684" y="1530" type="line"/>
      <point x="684" y="1660" type="line"/>
    </contour>
  </outline>
</glyph>
<glyph name="glyph267" format="1">
  <advance width="385"/>
  <outline>
    <contour>
      <point x="138" y="1256" type="line"/>
      <point x="138" y="1126" type="line"/>
      <point x="-16" y="1126" type="line"/>
      <point x="-16" y="1256" type="line"/>
    </contour>
    <contour>
      <point x="402" y="1256" type="line"/>
      <point x="402" y="1126" type="line"/>
      <point x="248" y="1126" type="line"/>
      <point x="248" y="1256" type="line"/>
    </contour>
  </outline>
</glyph>
